M48
;DRILL file {KiCad 4.0.2-stable} date 3/15/2016 10:46:15 PM
;FORMAT={3:3/ absolute / metric / suppress leading zeros}
FMAT,2
METRIC,TZ
T1C0.400
T2C0.900
T3C1.016
%
G90
G05
M71
T1
X102362Y-93917
X113284Y-78676
X116332Y-84836
X116632Y-75484
X118110Y-82296
X118110Y-84328
X118618Y-70104
X119571Y-64834
X120396Y-93917
X121920Y-78145
X122492Y-87948
X122682Y-64834
X122936Y-72136
X123646Y-75998
X124397Y-83185
X125984Y-72136
X126301Y-86423
X127318Y-87948
X128270Y-72136
X130856Y-74722
X130874Y-78676
X133286Y-77280
X135064Y-91313
X135700Y-73660
X138230Y-74285
T2
X110617Y-54351
X110617Y-56891
X110617Y-59431
X110617Y-61971
X113157Y-55621
X113157Y-58161
X113157Y-60701
X113157Y-63241
X138924Y-89843
X138924Y-91883
X138924Y-93923
X141464Y-90863
X141464Y-92902
X141464Y-94943
T3
X102108Y-87440
X102108Y-89980
X102298Y-73851
X102298Y-76391
X102298Y-78931
X102298Y-81471
X124397Y-91821
X124397Y-94361
X124397Y-96901
X130683Y-68453
X133223Y-68453
X135763Y-68453
X138303Y-68453
X140843Y-68453
X143383Y-68453
X145923Y-68453
X146812Y-74994
X146812Y-77534
X146812Y-80073
X146812Y-82614
X148463Y-68453
T0
M30
