%FSLAX45Y45*%
G04 Gerber Fmt 4.5, Leading zero omitted, Abs format (unit mm)*
G04 Created by KiCad (PCBNEW 4.0.2-stable) date 3/15/2016 10:46:16 PM*
%MOMM*%
G01*
G04 APERTURE LIST*
%ADD10C,0.127000*%
%ADD11C,0.150000*%
%ADD12C,0.200000*%
%ADD13C,0.300000*%
G04 APERTURE END LIST*
D10*
D11*
X10000000Y-5000000D02*
X10000000Y-10000000D01*
X15000000Y-5000000D02*
X10000000Y-5000000D01*
X15000000Y-10000000D02*
X15000000Y-5000000D01*
X10000000Y-10000000D02*
X15000000Y-10000000D01*
D12*
X14271400Y-8534250D02*
X14481400Y-8744250D01*
X14481400Y-8534250D02*
X14271400Y-8744250D01*
X14271400Y-9734250D02*
X14481400Y-9944250D01*
X14481400Y-9734250D02*
X14271400Y-9944250D01*
X12660000Y-5225000D02*
G75*
G03X12660000Y-5225000I-160000J0D01*
G01*
X10426700Y-5145600D02*
X10426700Y-5470600D01*
X10264200Y-5308100D02*
X10589200Y-5308100D01*
X10426700Y-6289600D02*
X10426700Y-6614600D01*
X10264200Y-6452100D02*
X10589200Y-6452100D01*
D13*
X10263929Y-10473214D02*
X10263929Y-10173214D01*
X10335357Y-10173214D01*
X10378214Y-10187500D01*
X10406786Y-10216072D01*
X10421071Y-10244643D01*
X10435357Y-10301786D01*
X10435357Y-10344643D01*
X10421071Y-10401786D01*
X10406786Y-10430357D01*
X10378214Y-10458929D01*
X10335357Y-10473214D01*
X10263929Y-10473214D01*
X10563929Y-10473214D02*
X10563929Y-10273214D01*
X10563929Y-10330357D02*
X10578214Y-10301786D01*
X10592500Y-10287500D01*
X10621071Y-10273214D01*
X10649643Y-10273214D01*
X10749643Y-10473214D02*
X10749643Y-10273214D01*
X10749643Y-10173214D02*
X10735357Y-10187500D01*
X10749643Y-10201786D01*
X10763929Y-10187500D01*
X10749643Y-10173214D01*
X10749643Y-10201786D01*
X10935357Y-10473214D02*
X10906786Y-10458929D01*
X10892500Y-10430357D01*
X10892500Y-10173214D01*
X11092500Y-10473214D02*
X11063929Y-10458929D01*
X11049643Y-10430357D01*
X11049643Y-10173214D01*
X11435357Y-10473214D02*
X11435357Y-10173214D01*
X11535357Y-10387500D01*
X11635357Y-10173214D01*
X11635357Y-10473214D01*
X11906786Y-10473214D02*
X11906786Y-10316072D01*
X11892500Y-10287500D01*
X11863928Y-10273214D01*
X11806786Y-10273214D01*
X11778214Y-10287500D01*
X11906786Y-10458929D02*
X11878214Y-10473214D01*
X11806786Y-10473214D01*
X11778214Y-10458929D01*
X11763928Y-10430357D01*
X11763928Y-10401786D01*
X11778214Y-10373214D01*
X11806786Y-10358929D01*
X11878214Y-10358929D01*
X11906786Y-10344643D01*
X12049643Y-10273214D02*
X12049643Y-10573214D01*
X12049643Y-10287500D02*
X12078214Y-10273214D01*
X12135357Y-10273214D01*
X12163928Y-10287500D01*
X12178214Y-10301786D01*
X12192500Y-10330357D01*
X12192500Y-10416072D01*
X12178214Y-10444643D01*
X12163928Y-10458929D01*
X12135357Y-10473214D01*
X12078214Y-10473214D01*
X12049643Y-10458929D01*
X12321071Y-10444643D02*
X12335357Y-10458929D01*
X12321071Y-10473214D01*
X12306786Y-10458929D01*
X12321071Y-10444643D01*
X12321071Y-10473214D01*
X12321071Y-10287500D02*
X12335357Y-10301786D01*
X12321071Y-10316072D01*
X12306786Y-10301786D01*
X12321071Y-10287500D01*
X12321071Y-10316072D01*
X9782500Y-10862500D02*
X9992500Y-11072500D01*
X9992500Y-10862500D02*
X9782500Y-11072500D01*
X10249643Y-10831786D02*
X10263929Y-10817500D01*
X10292500Y-10803214D01*
X10363929Y-10803214D01*
X10392500Y-10817500D01*
X10406786Y-10831786D01*
X10421071Y-10860357D01*
X10421071Y-10888929D01*
X10406786Y-10931786D01*
X10235357Y-11103214D01*
X10421071Y-11103214D01*
X10549643Y-11074643D02*
X10563929Y-11088929D01*
X10549643Y-11103214D01*
X10535357Y-11088929D01*
X10549643Y-11074643D01*
X10549643Y-11103214D01*
X10849643Y-11103214D02*
X10678214Y-11103214D01*
X10763928Y-11103214D02*
X10763928Y-10803214D01*
X10735357Y-10846072D01*
X10706786Y-10874643D01*
X10678214Y-10888929D01*
X11035357Y-10803214D02*
X11063929Y-10803214D01*
X11092500Y-10817500D01*
X11106786Y-10831786D01*
X11121071Y-10860357D01*
X11135357Y-10917500D01*
X11135357Y-10988929D01*
X11121071Y-11046072D01*
X11106786Y-11074643D01*
X11092500Y-11088929D01*
X11063929Y-11103214D01*
X11035357Y-11103214D01*
X11006786Y-11088929D01*
X10992500Y-11074643D01*
X10978214Y-11046072D01*
X10963929Y-10988929D01*
X10963929Y-10917500D01*
X10978214Y-10860357D01*
X10992500Y-10831786D01*
X11006786Y-10817500D01*
X11035357Y-10803214D01*
X11263928Y-11103214D02*
X11263928Y-10903214D01*
X11263928Y-10931786D02*
X11278214Y-10917500D01*
X11306786Y-10903214D01*
X11349643Y-10903214D01*
X11378214Y-10917500D01*
X11392500Y-10946072D01*
X11392500Y-11103214D01*
X11392500Y-10946072D02*
X11406786Y-10917500D01*
X11435357Y-10903214D01*
X11478214Y-10903214D01*
X11506786Y-10917500D01*
X11521071Y-10946072D01*
X11521071Y-11103214D01*
X11663928Y-11103214D02*
X11663928Y-10903214D01*
X11663928Y-10931786D02*
X11678214Y-10917500D01*
X11706786Y-10903214D01*
X11749643Y-10903214D01*
X11778214Y-10917500D01*
X11792500Y-10946072D01*
X11792500Y-11103214D01*
X11792500Y-10946072D02*
X11806786Y-10917500D01*
X11835357Y-10903214D01*
X11878214Y-10903214D01*
X11906786Y-10917500D01*
X11921071Y-10946072D01*
X11921071Y-11103214D01*
X12506786Y-10788929D02*
X12249643Y-11174643D01*
X12892500Y-10803214D02*
X12921071Y-10803214D01*
X12949643Y-10817500D01*
X12963928Y-10831786D01*
X12978214Y-10860357D01*
X12992500Y-10917500D01*
X12992500Y-10988929D01*
X12978214Y-11046072D01*
X12963928Y-11074643D01*
X12949643Y-11088929D01*
X12921071Y-11103214D01*
X12892500Y-11103214D01*
X12863928Y-11088929D01*
X12849643Y-11074643D01*
X12835357Y-11046072D01*
X12821071Y-10988929D01*
X12821071Y-10917500D01*
X12835357Y-10860357D01*
X12849643Y-10831786D01*
X12863928Y-10817500D01*
X12892500Y-10803214D01*
X13121071Y-11074643D02*
X13135357Y-11088929D01*
X13121071Y-11103214D01*
X13106786Y-11088929D01*
X13121071Y-11074643D01*
X13121071Y-11103214D01*
X13321071Y-10803214D02*
X13349643Y-10803214D01*
X13378214Y-10817500D01*
X13392500Y-10831786D01*
X13406785Y-10860357D01*
X13421071Y-10917500D01*
X13421071Y-10988929D01*
X13406785Y-11046072D01*
X13392500Y-11074643D01*
X13378214Y-11088929D01*
X13349643Y-11103214D01*
X13321071Y-11103214D01*
X13292500Y-11088929D01*
X13278214Y-11074643D01*
X13263928Y-11046072D01*
X13249643Y-10988929D01*
X13249643Y-10917500D01*
X13263928Y-10860357D01*
X13278214Y-10831786D01*
X13292500Y-10817500D01*
X13321071Y-10803214D01*
X13592500Y-10931786D02*
X13563928Y-10917500D01*
X13549643Y-10903214D01*
X13535357Y-10874643D01*
X13535357Y-10860357D01*
X13549643Y-10831786D01*
X13563928Y-10817500D01*
X13592500Y-10803214D01*
X13649643Y-10803214D01*
X13678214Y-10817500D01*
X13692500Y-10831786D01*
X13706785Y-10860357D01*
X13706785Y-10874643D01*
X13692500Y-10903214D01*
X13678214Y-10917500D01*
X13649643Y-10931786D01*
X13592500Y-10931786D01*
X13563928Y-10946072D01*
X13549643Y-10960357D01*
X13535357Y-10988929D01*
X13535357Y-11046072D01*
X13549643Y-11074643D01*
X13563928Y-11088929D01*
X13592500Y-11103214D01*
X13649643Y-11103214D01*
X13678214Y-11088929D01*
X13692500Y-11074643D01*
X13706785Y-11046072D01*
X13706785Y-10988929D01*
X13692500Y-10960357D01*
X13678214Y-10946072D01*
X13649643Y-10931786D01*
X13806785Y-10803214D02*
X13992500Y-10803214D01*
X13892500Y-10917500D01*
X13935357Y-10917500D01*
X13963928Y-10931786D01*
X13978214Y-10946072D01*
X13992500Y-10974643D01*
X13992500Y-11046072D01*
X13978214Y-11074643D01*
X13963928Y-11088929D01*
X13935357Y-11103214D01*
X13849643Y-11103214D01*
X13821071Y-11088929D01*
X13806785Y-11074643D01*
X14106786Y-10803214D02*
X14106786Y-10860357D01*
X14221071Y-10803214D02*
X14221071Y-10860357D01*
X14663928Y-11217500D02*
X14649643Y-11203214D01*
X14621071Y-11160357D01*
X14606785Y-11131786D01*
X14592500Y-11088929D01*
X14578214Y-11017500D01*
X14578214Y-10960357D01*
X14592500Y-10888929D01*
X14606785Y-10846072D01*
X14621071Y-10817500D01*
X14649643Y-10774643D01*
X14663928Y-10760357D01*
X14763928Y-10831786D02*
X14778214Y-10817500D01*
X14806785Y-10803214D01*
X14878214Y-10803214D01*
X14906785Y-10817500D01*
X14921071Y-10831786D01*
X14935357Y-10860357D01*
X14935357Y-10888929D01*
X14921071Y-10931786D01*
X14749643Y-11103214D01*
X14935357Y-11103214D01*
X15292500Y-11103214D02*
X15292500Y-10803214D01*
X15421071Y-11103214D02*
X15421071Y-10946072D01*
X15406785Y-10917500D01*
X15378214Y-10903214D01*
X15335357Y-10903214D01*
X15306785Y-10917500D01*
X15292500Y-10931786D01*
X15606785Y-11103214D02*
X15578214Y-11088929D01*
X15563928Y-11074643D01*
X15549643Y-11046072D01*
X15549643Y-10960357D01*
X15563928Y-10931786D01*
X15578214Y-10917500D01*
X15606785Y-10903214D01*
X15649643Y-10903214D01*
X15678214Y-10917500D01*
X15692500Y-10931786D01*
X15706785Y-10960357D01*
X15706785Y-11046072D01*
X15692500Y-11074643D01*
X15678214Y-11088929D01*
X15649643Y-11103214D01*
X15606785Y-11103214D01*
X15878214Y-11103214D02*
X15849643Y-11088929D01*
X15835357Y-11060357D01*
X15835357Y-10803214D01*
X16106786Y-11088929D02*
X16078214Y-11103214D01*
X16021071Y-11103214D01*
X15992500Y-11088929D01*
X15978214Y-11060357D01*
X15978214Y-10946072D01*
X15992500Y-10917500D01*
X16021071Y-10903214D01*
X16078214Y-10903214D01*
X16106786Y-10917500D01*
X16121071Y-10946072D01*
X16121071Y-10974643D01*
X15978214Y-11003214D01*
X16235357Y-11088929D02*
X16263928Y-11103214D01*
X16321071Y-11103214D01*
X16349643Y-11088929D01*
X16363928Y-11060357D01*
X16363928Y-11046072D01*
X16349643Y-11017500D01*
X16321071Y-11003214D01*
X16278214Y-11003214D01*
X16249643Y-10988929D01*
X16235357Y-10960357D01*
X16235357Y-10946072D01*
X16249643Y-10917500D01*
X16278214Y-10903214D01*
X16321071Y-10903214D01*
X16349643Y-10917500D01*
X16463928Y-11217500D02*
X16478214Y-11203214D01*
X16506786Y-11160357D01*
X16521071Y-11131786D01*
X16535357Y-11088929D01*
X16549643Y-11017500D01*
X16549643Y-10960357D01*
X16535357Y-10888929D01*
X16521071Y-10846072D01*
X16506786Y-10817500D01*
X16478214Y-10774643D01*
X16463928Y-10760357D01*
X17006786Y-11217500D02*
X16992500Y-11203214D01*
X16963928Y-11160357D01*
X16949643Y-11131786D01*
X16935357Y-11088929D01*
X16921071Y-11017500D01*
X16921071Y-10960357D01*
X16935357Y-10888929D01*
X16949643Y-10846072D01*
X16963928Y-10817500D01*
X16992500Y-10774643D01*
X17006786Y-10760357D01*
X17121071Y-10903214D02*
X17121071Y-11103214D01*
X17121071Y-10931786D02*
X17135357Y-10917500D01*
X17163928Y-10903214D01*
X17206786Y-10903214D01*
X17235357Y-10917500D01*
X17249643Y-10946072D01*
X17249643Y-11103214D01*
X17435357Y-11103214D02*
X17406786Y-11088929D01*
X17392500Y-11074643D01*
X17378214Y-11046072D01*
X17378214Y-10960357D01*
X17392500Y-10931786D01*
X17406786Y-10917500D01*
X17435357Y-10903214D01*
X17478214Y-10903214D01*
X17506786Y-10917500D01*
X17521071Y-10931786D01*
X17535357Y-10960357D01*
X17535357Y-11046072D01*
X17521071Y-11074643D01*
X17506786Y-11088929D01*
X17478214Y-11103214D01*
X17435357Y-11103214D01*
X17621071Y-10903214D02*
X17735357Y-10903214D01*
X17663929Y-10803214D02*
X17663929Y-11060357D01*
X17678214Y-11088929D01*
X17706786Y-11103214D01*
X17735357Y-11103214D01*
X18063929Y-10903214D02*
X18063929Y-11203214D01*
X18063929Y-10917500D02*
X18092500Y-10903214D01*
X18149643Y-10903214D01*
X18178214Y-10917500D01*
X18192500Y-10931786D01*
X18206786Y-10960357D01*
X18206786Y-11046072D01*
X18192500Y-11074643D01*
X18178214Y-11088929D01*
X18149643Y-11103214D01*
X18092500Y-11103214D01*
X18063929Y-11088929D01*
X18378214Y-11103214D02*
X18349643Y-11088929D01*
X18335357Y-11060357D01*
X18335357Y-10803214D01*
X18621071Y-11103214D02*
X18621071Y-10946072D01*
X18606786Y-10917500D01*
X18578214Y-10903214D01*
X18521071Y-10903214D01*
X18492500Y-10917500D01*
X18621071Y-11088929D02*
X18592500Y-11103214D01*
X18521071Y-11103214D01*
X18492500Y-11088929D01*
X18478214Y-11060357D01*
X18478214Y-11031786D01*
X18492500Y-11003214D01*
X18521071Y-10988929D01*
X18592500Y-10988929D01*
X18621071Y-10974643D01*
X18721071Y-10903214D02*
X18835357Y-10903214D01*
X18763929Y-10803214D02*
X18763929Y-11060357D01*
X18778214Y-11088929D01*
X18806786Y-11103214D01*
X18835357Y-11103214D01*
X19049643Y-11088929D02*
X19021072Y-11103214D01*
X18963929Y-11103214D01*
X18935357Y-11088929D01*
X18921072Y-11060357D01*
X18921072Y-10946072D01*
X18935357Y-10917500D01*
X18963929Y-10903214D01*
X19021072Y-10903214D01*
X19049643Y-10917500D01*
X19063929Y-10946072D01*
X19063929Y-10974643D01*
X18921072Y-11003214D01*
X19321072Y-11103214D02*
X19321072Y-10803214D01*
X19321072Y-11088929D02*
X19292500Y-11103214D01*
X19235357Y-11103214D01*
X19206786Y-11088929D01*
X19192500Y-11074643D01*
X19178214Y-11046072D01*
X19178214Y-10960357D01*
X19192500Y-10931786D01*
X19206786Y-10917500D01*
X19235357Y-10903214D01*
X19292500Y-10903214D01*
X19321072Y-10917500D01*
X19435357Y-11217500D02*
X19449643Y-11203214D01*
X19478214Y-11160357D01*
X19492500Y-11131786D01*
X19506786Y-11088929D01*
X19521072Y-11017500D01*
X19521072Y-10960357D01*
X19506786Y-10888929D01*
X19492500Y-10846072D01*
X19478214Y-10817500D01*
X19449643Y-10774643D01*
X19435357Y-10760357D01*
X9992500Y-11363500D02*
G75*
G03X9992500Y-11363500I-160000J0D01*
G01*
X10235357Y-11199214D02*
X10421071Y-11199214D01*
X10321071Y-11313500D01*
X10363929Y-11313500D01*
X10392500Y-11327786D01*
X10406786Y-11342071D01*
X10421071Y-11370643D01*
X10421071Y-11442071D01*
X10406786Y-11470643D01*
X10392500Y-11484929D01*
X10363929Y-11499214D01*
X10278214Y-11499214D01*
X10249643Y-11484929D01*
X10235357Y-11470643D01*
X10549643Y-11470643D02*
X10563929Y-11484929D01*
X10549643Y-11499214D01*
X10535357Y-11484929D01*
X10549643Y-11470643D01*
X10549643Y-11499214D01*
X10678214Y-11227786D02*
X10692500Y-11213500D01*
X10721071Y-11199214D01*
X10792500Y-11199214D01*
X10821071Y-11213500D01*
X10835357Y-11227786D01*
X10849643Y-11256357D01*
X10849643Y-11284929D01*
X10835357Y-11327786D01*
X10663928Y-11499214D01*
X10849643Y-11499214D01*
X11035357Y-11199214D02*
X11063929Y-11199214D01*
X11092500Y-11213500D01*
X11106786Y-11227786D01*
X11121071Y-11256357D01*
X11135357Y-11313500D01*
X11135357Y-11384929D01*
X11121071Y-11442071D01*
X11106786Y-11470643D01*
X11092500Y-11484929D01*
X11063929Y-11499214D01*
X11035357Y-11499214D01*
X11006786Y-11484929D01*
X10992500Y-11470643D01*
X10978214Y-11442071D01*
X10963929Y-11384929D01*
X10963929Y-11313500D01*
X10978214Y-11256357D01*
X10992500Y-11227786D01*
X11006786Y-11213500D01*
X11035357Y-11199214D01*
X11263928Y-11499214D02*
X11263928Y-11299214D01*
X11263928Y-11327786D02*
X11278214Y-11313500D01*
X11306786Y-11299214D01*
X11349643Y-11299214D01*
X11378214Y-11313500D01*
X11392500Y-11342071D01*
X11392500Y-11499214D01*
X11392500Y-11342071D02*
X11406786Y-11313500D01*
X11435357Y-11299214D01*
X11478214Y-11299214D01*
X11506786Y-11313500D01*
X11521071Y-11342071D01*
X11521071Y-11499214D01*
X11663928Y-11499214D02*
X11663928Y-11299214D01*
X11663928Y-11327786D02*
X11678214Y-11313500D01*
X11706786Y-11299214D01*
X11749643Y-11299214D01*
X11778214Y-11313500D01*
X11792500Y-11342071D01*
X11792500Y-11499214D01*
X11792500Y-11342071D02*
X11806786Y-11313500D01*
X11835357Y-11299214D01*
X11878214Y-11299214D01*
X11906786Y-11313500D01*
X11921071Y-11342071D01*
X11921071Y-11499214D01*
X12506786Y-11184929D02*
X12249643Y-11570643D01*
X12892500Y-11199214D02*
X12921071Y-11199214D01*
X12949643Y-11213500D01*
X12963928Y-11227786D01*
X12978214Y-11256357D01*
X12992500Y-11313500D01*
X12992500Y-11384929D01*
X12978214Y-11442071D01*
X12963928Y-11470643D01*
X12949643Y-11484929D01*
X12921071Y-11499214D01*
X12892500Y-11499214D01*
X12863928Y-11484929D01*
X12849643Y-11470643D01*
X12835357Y-11442071D01*
X12821071Y-11384929D01*
X12821071Y-11313500D01*
X12835357Y-11256357D01*
X12849643Y-11227786D01*
X12863928Y-11213500D01*
X12892500Y-11199214D01*
X13121071Y-11470643D02*
X13135357Y-11484929D01*
X13121071Y-11499214D01*
X13106786Y-11484929D01*
X13121071Y-11470643D01*
X13121071Y-11499214D01*
X13421071Y-11499214D02*
X13249643Y-11499214D01*
X13335357Y-11499214D02*
X13335357Y-11199214D01*
X13306785Y-11242071D01*
X13278214Y-11270643D01*
X13249643Y-11284929D01*
X13535357Y-11227786D02*
X13549643Y-11213500D01*
X13578214Y-11199214D01*
X13649643Y-11199214D01*
X13678214Y-11213500D01*
X13692500Y-11227786D01*
X13706785Y-11256357D01*
X13706785Y-11284929D01*
X13692500Y-11327786D01*
X13521071Y-11499214D01*
X13706785Y-11499214D01*
X13963928Y-11199214D02*
X13906785Y-11199214D01*
X13878214Y-11213500D01*
X13863928Y-11227786D01*
X13835357Y-11270643D01*
X13821071Y-11327786D01*
X13821071Y-11442071D01*
X13835357Y-11470643D01*
X13849643Y-11484929D01*
X13878214Y-11499214D01*
X13935357Y-11499214D01*
X13963928Y-11484929D01*
X13978214Y-11470643D01*
X13992500Y-11442071D01*
X13992500Y-11370643D01*
X13978214Y-11342071D01*
X13963928Y-11327786D01*
X13935357Y-11313500D01*
X13878214Y-11313500D01*
X13849643Y-11327786D01*
X13835357Y-11342071D01*
X13821071Y-11370643D01*
X14106786Y-11199214D02*
X14106786Y-11256357D01*
X14221071Y-11199214D02*
X14221071Y-11256357D01*
X14663928Y-11613500D02*
X14649643Y-11599214D01*
X14621071Y-11556357D01*
X14606785Y-11527786D01*
X14592500Y-11484929D01*
X14578214Y-11413500D01*
X14578214Y-11356357D01*
X14592500Y-11284929D01*
X14606785Y-11242071D01*
X14621071Y-11213500D01*
X14649643Y-11170643D01*
X14663928Y-11156357D01*
X14935357Y-11499214D02*
X14763928Y-11499214D01*
X14849643Y-11499214D02*
X14849643Y-11199214D01*
X14821071Y-11242071D01*
X14792500Y-11270643D01*
X14763928Y-11284929D01*
X15292500Y-11499214D02*
X15292500Y-11199214D01*
X15421071Y-11499214D02*
X15421071Y-11342071D01*
X15406785Y-11313500D01*
X15378214Y-11299214D01*
X15335357Y-11299214D01*
X15306785Y-11313500D01*
X15292500Y-11327786D01*
X15606785Y-11499214D02*
X15578214Y-11484929D01*
X15563928Y-11470643D01*
X15549643Y-11442071D01*
X15549643Y-11356357D01*
X15563928Y-11327786D01*
X15578214Y-11313500D01*
X15606785Y-11299214D01*
X15649643Y-11299214D01*
X15678214Y-11313500D01*
X15692500Y-11327786D01*
X15706785Y-11356357D01*
X15706785Y-11442071D01*
X15692500Y-11470643D01*
X15678214Y-11484929D01*
X15649643Y-11499214D01*
X15606785Y-11499214D01*
X15878214Y-11499214D02*
X15849643Y-11484929D01*
X15835357Y-11456357D01*
X15835357Y-11199214D01*
X16106786Y-11484929D02*
X16078214Y-11499214D01*
X16021071Y-11499214D01*
X15992500Y-11484929D01*
X15978214Y-11456357D01*
X15978214Y-11342071D01*
X15992500Y-11313500D01*
X16021071Y-11299214D01*
X16078214Y-11299214D01*
X16106786Y-11313500D01*
X16121071Y-11342071D01*
X16121071Y-11370643D01*
X15978214Y-11399214D01*
X16221071Y-11613500D02*
X16235357Y-11599214D01*
X16263928Y-11556357D01*
X16278214Y-11527786D01*
X16292500Y-11484929D01*
X16306786Y-11413500D01*
X16306786Y-11356357D01*
X16292500Y-11284929D01*
X16278214Y-11242071D01*
X16263928Y-11213500D01*
X16235357Y-11170643D01*
X16221071Y-11156357D01*
X16763928Y-11613500D02*
X16749643Y-11599214D01*
X16721071Y-11556357D01*
X16706786Y-11527786D01*
X16692500Y-11484929D01*
X16678214Y-11413500D01*
X16678214Y-11356357D01*
X16692500Y-11284929D01*
X16706786Y-11242071D01*
X16721071Y-11213500D01*
X16749643Y-11170643D01*
X16763928Y-11156357D01*
X16878214Y-11299214D02*
X16878214Y-11499214D01*
X16878214Y-11327786D02*
X16892500Y-11313500D01*
X16921071Y-11299214D01*
X16963929Y-11299214D01*
X16992500Y-11313500D01*
X17006786Y-11342071D01*
X17006786Y-11499214D01*
X17192500Y-11499214D02*
X17163929Y-11484929D01*
X17149643Y-11470643D01*
X17135357Y-11442071D01*
X17135357Y-11356357D01*
X17149643Y-11327786D01*
X17163929Y-11313500D01*
X17192500Y-11299214D01*
X17235357Y-11299214D01*
X17263929Y-11313500D01*
X17278214Y-11327786D01*
X17292500Y-11356357D01*
X17292500Y-11442071D01*
X17278214Y-11470643D01*
X17263929Y-11484929D01*
X17235357Y-11499214D01*
X17192500Y-11499214D01*
X17378214Y-11299214D02*
X17492500Y-11299214D01*
X17421071Y-11199214D02*
X17421071Y-11456357D01*
X17435357Y-11484929D01*
X17463929Y-11499214D01*
X17492500Y-11499214D01*
X17821071Y-11299214D02*
X17821071Y-11599214D01*
X17821071Y-11313500D02*
X17849643Y-11299214D01*
X17906786Y-11299214D01*
X17935357Y-11313500D01*
X17949643Y-11327786D01*
X17963929Y-11356357D01*
X17963929Y-11442071D01*
X17949643Y-11470643D01*
X17935357Y-11484929D01*
X17906786Y-11499214D01*
X17849643Y-11499214D01*
X17821071Y-11484929D01*
X18135357Y-11499214D02*
X18106786Y-11484929D01*
X18092500Y-11456357D01*
X18092500Y-11199214D01*
X18378214Y-11499214D02*
X18378214Y-11342071D01*
X18363929Y-11313500D01*
X18335357Y-11299214D01*
X18278214Y-11299214D01*
X18249643Y-11313500D01*
X18378214Y-11484929D02*
X18349643Y-11499214D01*
X18278214Y-11499214D01*
X18249643Y-11484929D01*
X18235357Y-11456357D01*
X18235357Y-11427786D01*
X18249643Y-11399214D01*
X18278214Y-11384929D01*
X18349643Y-11384929D01*
X18378214Y-11370643D01*
X18478214Y-11299214D02*
X18592500Y-11299214D01*
X18521072Y-11199214D02*
X18521072Y-11456357D01*
X18535357Y-11484929D01*
X18563929Y-11499214D01*
X18592500Y-11499214D01*
X18806786Y-11484929D02*
X18778214Y-11499214D01*
X18721072Y-11499214D01*
X18692500Y-11484929D01*
X18678214Y-11456357D01*
X18678214Y-11342071D01*
X18692500Y-11313500D01*
X18721072Y-11299214D01*
X18778214Y-11299214D01*
X18806786Y-11313500D01*
X18821072Y-11342071D01*
X18821072Y-11370643D01*
X18678214Y-11399214D01*
X19078214Y-11499214D02*
X19078214Y-11199214D01*
X19078214Y-11484929D02*
X19049643Y-11499214D01*
X18992500Y-11499214D01*
X18963929Y-11484929D01*
X18949643Y-11470643D01*
X18935357Y-11442071D01*
X18935357Y-11356357D01*
X18949643Y-11327786D01*
X18963929Y-11313500D01*
X18992500Y-11299214D01*
X19049643Y-11299214D01*
X19078214Y-11313500D01*
X19192500Y-11613500D02*
X19206786Y-11599214D01*
X19235357Y-11556357D01*
X19249643Y-11527786D01*
X19263929Y-11484929D01*
X19278214Y-11413500D01*
X19278214Y-11356357D01*
X19263929Y-11284929D01*
X19249643Y-11242071D01*
X19235357Y-11213500D01*
X19206786Y-11170643D01*
X19192500Y-11156357D01*
X9830000Y-11651000D02*
X9830000Y-11976000D01*
X9667500Y-11813500D02*
X9992500Y-11813500D01*
X10235357Y-11649214D02*
X10421071Y-11649214D01*
X10321071Y-11763500D01*
X10363929Y-11763500D01*
X10392500Y-11777786D01*
X10406786Y-11792071D01*
X10421071Y-11820643D01*
X10421071Y-11892071D01*
X10406786Y-11920643D01*
X10392500Y-11934929D01*
X10363929Y-11949214D01*
X10278214Y-11949214D01*
X10249643Y-11934929D01*
X10235357Y-11920643D01*
X10549643Y-11920643D02*
X10563929Y-11934929D01*
X10549643Y-11949214D01*
X10535357Y-11934929D01*
X10549643Y-11920643D01*
X10549643Y-11949214D01*
X10678214Y-11677786D02*
X10692500Y-11663500D01*
X10721071Y-11649214D01*
X10792500Y-11649214D01*
X10821071Y-11663500D01*
X10835357Y-11677786D01*
X10849643Y-11706357D01*
X10849643Y-11734929D01*
X10835357Y-11777786D01*
X10663928Y-11949214D01*
X10849643Y-11949214D01*
X11121071Y-11649214D02*
X10978214Y-11649214D01*
X10963929Y-11792071D01*
X10978214Y-11777786D01*
X11006786Y-11763500D01*
X11078214Y-11763500D01*
X11106786Y-11777786D01*
X11121071Y-11792071D01*
X11135357Y-11820643D01*
X11135357Y-11892071D01*
X11121071Y-11920643D01*
X11106786Y-11934929D01*
X11078214Y-11949214D01*
X11006786Y-11949214D01*
X10978214Y-11934929D01*
X10963929Y-11920643D01*
X11263928Y-11949214D02*
X11263928Y-11749214D01*
X11263928Y-11777786D02*
X11278214Y-11763500D01*
X11306786Y-11749214D01*
X11349643Y-11749214D01*
X11378214Y-11763500D01*
X11392500Y-11792071D01*
X11392500Y-11949214D01*
X11392500Y-11792071D02*
X11406786Y-11763500D01*
X11435357Y-11749214D01*
X11478214Y-11749214D01*
X11506786Y-11763500D01*
X11521071Y-11792071D01*
X11521071Y-11949214D01*
X11663928Y-11949214D02*
X11663928Y-11749214D01*
X11663928Y-11777786D02*
X11678214Y-11763500D01*
X11706786Y-11749214D01*
X11749643Y-11749214D01*
X11778214Y-11763500D01*
X11792500Y-11792071D01*
X11792500Y-11949214D01*
X11792500Y-11792071D02*
X11806786Y-11763500D01*
X11835357Y-11749214D01*
X11878214Y-11749214D01*
X11906786Y-11763500D01*
X11921071Y-11792071D01*
X11921071Y-11949214D01*
X12506786Y-11634929D02*
X12249643Y-12020643D01*
X12892500Y-11649214D02*
X12921071Y-11649214D01*
X12949643Y-11663500D01*
X12963928Y-11677786D01*
X12978214Y-11706357D01*
X12992500Y-11763500D01*
X12992500Y-11834929D01*
X12978214Y-11892071D01*
X12963928Y-11920643D01*
X12949643Y-11934929D01*
X12921071Y-11949214D01*
X12892500Y-11949214D01*
X12863928Y-11934929D01*
X12849643Y-11920643D01*
X12835357Y-11892071D01*
X12821071Y-11834929D01*
X12821071Y-11763500D01*
X12835357Y-11706357D01*
X12849643Y-11677786D01*
X12863928Y-11663500D01*
X12892500Y-11649214D01*
X13121071Y-11920643D02*
X13135357Y-11934929D01*
X13121071Y-11949214D01*
X13106786Y-11934929D01*
X13121071Y-11920643D01*
X13121071Y-11949214D01*
X13421071Y-11949214D02*
X13249643Y-11949214D01*
X13335357Y-11949214D02*
X13335357Y-11649214D01*
X13306785Y-11692071D01*
X13278214Y-11720643D01*
X13249643Y-11734929D01*
X13535357Y-11677786D02*
X13549643Y-11663500D01*
X13578214Y-11649214D01*
X13649643Y-11649214D01*
X13678214Y-11663500D01*
X13692500Y-11677786D01*
X13706785Y-11706357D01*
X13706785Y-11734929D01*
X13692500Y-11777786D01*
X13521071Y-11949214D01*
X13706785Y-11949214D01*
X13878214Y-11777786D02*
X13849643Y-11763500D01*
X13835357Y-11749214D01*
X13821071Y-11720643D01*
X13821071Y-11706357D01*
X13835357Y-11677786D01*
X13849643Y-11663500D01*
X13878214Y-11649214D01*
X13935357Y-11649214D01*
X13963928Y-11663500D01*
X13978214Y-11677786D01*
X13992500Y-11706357D01*
X13992500Y-11720643D01*
X13978214Y-11749214D01*
X13963928Y-11763500D01*
X13935357Y-11777786D01*
X13878214Y-11777786D01*
X13849643Y-11792071D01*
X13835357Y-11806357D01*
X13821071Y-11834929D01*
X13821071Y-11892071D01*
X13835357Y-11920643D01*
X13849643Y-11934929D01*
X13878214Y-11949214D01*
X13935357Y-11949214D01*
X13963928Y-11934929D01*
X13978214Y-11920643D01*
X13992500Y-11892071D01*
X13992500Y-11834929D01*
X13978214Y-11806357D01*
X13963928Y-11792071D01*
X13935357Y-11777786D01*
X14106786Y-11649214D02*
X14106786Y-11706357D01*
X14221071Y-11649214D02*
X14221071Y-11706357D01*
X14663928Y-12063500D02*
X14649643Y-12049214D01*
X14621071Y-12006357D01*
X14606785Y-11977786D01*
X14592500Y-11934929D01*
X14578214Y-11863500D01*
X14578214Y-11806357D01*
X14592500Y-11734929D01*
X14606785Y-11692071D01*
X14621071Y-11663500D01*
X14649643Y-11620643D01*
X14663928Y-11606357D01*
X14763928Y-11677786D02*
X14778214Y-11663500D01*
X14806785Y-11649214D01*
X14878214Y-11649214D01*
X14906785Y-11663500D01*
X14921071Y-11677786D01*
X14935357Y-11706357D01*
X14935357Y-11734929D01*
X14921071Y-11777786D01*
X14749643Y-11949214D01*
X14935357Y-11949214D01*
X15292500Y-11949214D02*
X15292500Y-11649214D01*
X15421071Y-11949214D02*
X15421071Y-11792071D01*
X15406785Y-11763500D01*
X15378214Y-11749214D01*
X15335357Y-11749214D01*
X15306785Y-11763500D01*
X15292500Y-11777786D01*
X15606785Y-11949214D02*
X15578214Y-11934929D01*
X15563928Y-11920643D01*
X15549643Y-11892071D01*
X15549643Y-11806357D01*
X15563928Y-11777786D01*
X15578214Y-11763500D01*
X15606785Y-11749214D01*
X15649643Y-11749214D01*
X15678214Y-11763500D01*
X15692500Y-11777786D01*
X15706785Y-11806357D01*
X15706785Y-11892071D01*
X15692500Y-11920643D01*
X15678214Y-11934929D01*
X15649643Y-11949214D01*
X15606785Y-11949214D01*
X15878214Y-11949214D02*
X15849643Y-11934929D01*
X15835357Y-11906357D01*
X15835357Y-11649214D01*
X16106786Y-11934929D02*
X16078214Y-11949214D01*
X16021071Y-11949214D01*
X15992500Y-11934929D01*
X15978214Y-11906357D01*
X15978214Y-11792071D01*
X15992500Y-11763500D01*
X16021071Y-11749214D01*
X16078214Y-11749214D01*
X16106786Y-11763500D01*
X16121071Y-11792071D01*
X16121071Y-11820643D01*
X15978214Y-11849214D01*
X16235357Y-11934929D02*
X16263928Y-11949214D01*
X16321071Y-11949214D01*
X16349643Y-11934929D01*
X16363928Y-11906357D01*
X16363928Y-11892071D01*
X16349643Y-11863500D01*
X16321071Y-11849214D01*
X16278214Y-11849214D01*
X16249643Y-11834929D01*
X16235357Y-11806357D01*
X16235357Y-11792071D01*
X16249643Y-11763500D01*
X16278214Y-11749214D01*
X16321071Y-11749214D01*
X16349643Y-11763500D01*
X16463928Y-12063500D02*
X16478214Y-12049214D01*
X16506786Y-12006357D01*
X16521071Y-11977786D01*
X16535357Y-11934929D01*
X16549643Y-11863500D01*
X16549643Y-11806357D01*
X16535357Y-11734929D01*
X16521071Y-11692071D01*
X16506786Y-11663500D01*
X16478214Y-11620643D01*
X16463928Y-11606357D01*
X17006786Y-12063500D02*
X16992500Y-12049214D01*
X16963928Y-12006357D01*
X16949643Y-11977786D01*
X16935357Y-11934929D01*
X16921071Y-11863500D01*
X16921071Y-11806357D01*
X16935357Y-11734929D01*
X16949643Y-11692071D01*
X16963928Y-11663500D01*
X16992500Y-11620643D01*
X17006786Y-11606357D01*
X17121071Y-11749214D02*
X17121071Y-11949214D01*
X17121071Y-11777786D02*
X17135357Y-11763500D01*
X17163928Y-11749214D01*
X17206786Y-11749214D01*
X17235357Y-11763500D01*
X17249643Y-11792071D01*
X17249643Y-11949214D01*
X17435357Y-11949214D02*
X17406786Y-11934929D01*
X17392500Y-11920643D01*
X17378214Y-11892071D01*
X17378214Y-11806357D01*
X17392500Y-11777786D01*
X17406786Y-11763500D01*
X17435357Y-11749214D01*
X17478214Y-11749214D01*
X17506786Y-11763500D01*
X17521071Y-11777786D01*
X17535357Y-11806357D01*
X17535357Y-11892071D01*
X17521071Y-11920643D01*
X17506786Y-11934929D01*
X17478214Y-11949214D01*
X17435357Y-11949214D01*
X17621071Y-11749214D02*
X17735357Y-11749214D01*
X17663929Y-11649214D02*
X17663929Y-11906357D01*
X17678214Y-11934929D01*
X17706786Y-11949214D01*
X17735357Y-11949214D01*
X18063929Y-11749214D02*
X18063929Y-12049214D01*
X18063929Y-11763500D02*
X18092500Y-11749214D01*
X18149643Y-11749214D01*
X18178214Y-11763500D01*
X18192500Y-11777786D01*
X18206786Y-11806357D01*
X18206786Y-11892071D01*
X18192500Y-11920643D01*
X18178214Y-11934929D01*
X18149643Y-11949214D01*
X18092500Y-11949214D01*
X18063929Y-11934929D01*
X18378214Y-11949214D02*
X18349643Y-11934929D01*
X18335357Y-11906357D01*
X18335357Y-11649214D01*
X18621071Y-11949214D02*
X18621071Y-11792071D01*
X18606786Y-11763500D01*
X18578214Y-11749214D01*
X18521071Y-11749214D01*
X18492500Y-11763500D01*
X18621071Y-11934929D02*
X18592500Y-11949214D01*
X18521071Y-11949214D01*
X18492500Y-11934929D01*
X18478214Y-11906357D01*
X18478214Y-11877786D01*
X18492500Y-11849214D01*
X18521071Y-11834929D01*
X18592500Y-11834929D01*
X18621071Y-11820643D01*
X18721071Y-11749214D02*
X18835357Y-11749214D01*
X18763929Y-11649214D02*
X18763929Y-11906357D01*
X18778214Y-11934929D01*
X18806786Y-11949214D01*
X18835357Y-11949214D01*
X19049643Y-11934929D02*
X19021072Y-11949214D01*
X18963929Y-11949214D01*
X18935357Y-11934929D01*
X18921072Y-11906357D01*
X18921072Y-11792071D01*
X18935357Y-11763500D01*
X18963929Y-11749214D01*
X19021072Y-11749214D01*
X19049643Y-11763500D01*
X19063929Y-11792071D01*
X19063929Y-11820643D01*
X18921072Y-11849214D01*
X19321072Y-11949214D02*
X19321072Y-11649214D01*
X19321072Y-11934929D02*
X19292500Y-11949214D01*
X19235357Y-11949214D01*
X19206786Y-11934929D01*
X19192500Y-11920643D01*
X19178214Y-11892071D01*
X19178214Y-11806357D01*
X19192500Y-11777786D01*
X19206786Y-11763500D01*
X19235357Y-11749214D01*
X19292500Y-11749214D01*
X19321072Y-11763500D01*
X19435357Y-12063500D02*
X19449643Y-12049214D01*
X19478214Y-12006357D01*
X19492500Y-11977786D01*
X19506786Y-11934929D01*
X19521072Y-11863500D01*
X19521072Y-11806357D01*
X19506786Y-11734929D01*
X19492500Y-11692071D01*
X19478214Y-11663500D01*
X19449643Y-11620643D01*
X19435357Y-11606357D01*
M02*
