G04 #@! TF.FileFunction,Soldermask,Bot*
%FSLAX46Y46*%
G04 Gerber Fmt 4.6, Leading zero omitted, Abs format (unit mm)*
G04 Created by KiCad (PCBNEW 4.0.2-stable) date 3/20/2016 1:22:30 PM*
%MOMM*%
G01*
G04 APERTURE LIST*
%ADD10C,0.100000*%
%ADD11C,3.250000*%
%ADD12R,1.500000X1.500000*%
%ADD13C,1.500000*%
%ADD14R,2.032000X1.727200*%
%ADD15O,2.032000X1.727200*%
%ADD16R,2.032000X2.032000*%
%ADD17O,2.032000X2.032000*%
%ADD18R,1.727200X2.032000*%
%ADD19O,1.727200X2.032000*%
%ADD20C,1.300000*%
%ADD21R,1.300000X1.300000*%
%ADD22C,2.100000*%
%ADD23C,0.254000*%
G04 APERTURE END LIST*
D10*
D11*
X125000000Y-52250000D03*
X104267000Y-64521000D03*
X104267000Y-53081000D03*
D12*
X110617000Y-54351000D03*
D13*
X113157000Y-55621000D03*
X110617000Y-56891000D03*
X113157000Y-58161000D03*
X110617000Y-59431000D03*
X113157000Y-60701000D03*
X110617000Y-61971000D03*
X113157000Y-63241000D03*
D14*
X102298500Y-73850500D03*
D15*
X102298500Y-76390500D03*
X102298500Y-78930500D03*
X102298500Y-81470500D03*
D16*
X102108000Y-89979500D03*
D17*
X102108000Y-87439500D03*
D14*
X146812000Y-74993500D03*
D15*
X146812000Y-77533500D03*
X146812000Y-80073500D03*
X146812000Y-82613500D03*
D18*
X130683000Y-68453000D03*
D19*
X133223000Y-68453000D03*
X135763000Y-68453000D03*
X138303000Y-68453000D03*
X140843000Y-68453000D03*
X143383000Y-68453000D03*
X145923000Y-68453000D03*
X148463000Y-68453000D03*
D14*
X124396500Y-96901000D03*
D15*
X124396500Y-94361000D03*
X124396500Y-91821000D03*
D20*
X138924000Y-91882500D03*
X138924000Y-93922500D03*
D21*
X138924000Y-89842500D03*
D20*
X141464000Y-94942500D03*
X141464000Y-92902500D03*
X141464000Y-90862500D03*
D22*
X143764000Y-86392500D03*
X143764000Y-98392500D03*
D23*
G36*
X125539500Y-63119000D02*
X117411500Y-63119000D01*
X117411500Y-54991000D01*
X125539500Y-54991000D01*
X125539500Y-63119000D01*
X125539500Y-63119000D01*
G37*
X125539500Y-63119000D02*
X117411500Y-63119000D01*
X117411500Y-54991000D01*
X125539500Y-54991000D01*
X125539500Y-63119000D01*
G36*
X148590000Y-61976000D02*
X145542000Y-61976000D01*
X145492590Y-61986006D01*
X145450965Y-62014447D01*
X145423685Y-62056841D01*
X145415000Y-62103000D01*
X145415000Y-63500000D01*
X138684000Y-63500000D01*
X138684000Y-62103000D01*
X138673994Y-62053590D01*
X138645553Y-62011965D01*
X138603159Y-61984685D01*
X138557000Y-61976000D01*
X135382000Y-61976000D01*
X135382000Y-60452000D01*
X148590000Y-60452000D01*
X148590000Y-61976000D01*
X148590000Y-61976000D01*
G37*
X148590000Y-61976000D02*
X145542000Y-61976000D01*
X145492590Y-61986006D01*
X145450965Y-62014447D01*
X145423685Y-62056841D01*
X145415000Y-62103000D01*
X145415000Y-63500000D01*
X138684000Y-63500000D01*
X138684000Y-62103000D01*
X138673994Y-62053590D01*
X138645553Y-62011965D01*
X138603159Y-61984685D01*
X138557000Y-61976000D01*
X135382000Y-61976000D01*
X135382000Y-60452000D01*
X148590000Y-60452000D01*
X148590000Y-61976000D01*
M02*
