G04 #@! TF.FileFunction,Legend,Top*
%FSLAX46Y46*%
G04 Gerber Fmt 4.6, Leading zero omitted, Abs format (unit mm)*
G04 Created by KiCad (PCBNEW 4.0.2-stable) date 3/15/2016 10:46:09 PM*
%MOMM*%
G01*
G04 APERTURE LIST*
%ADD10C,0.100000*%
%ADD11C,0.150000*%
%ADD12C,0.300000*%
%ADD13C,1.000000*%
G04 APERTURE END LIST*
D10*
D11*
X121890214Y-92265571D02*
X121390214Y-92265571D01*
X122175929Y-92087000D02*
X121640214Y-91908428D01*
X121640214Y-92372714D01*
X121818786Y-92765571D02*
X121854500Y-92694143D01*
X121890214Y-92658428D01*
X121961643Y-92622714D01*
X121997357Y-92622714D01*
X122068786Y-92658428D01*
X122104500Y-92694143D01*
X122140214Y-92765571D01*
X122140214Y-92908428D01*
X122104500Y-92979857D01*
X122068786Y-93015571D01*
X121997357Y-93051286D01*
X121961643Y-93051286D01*
X121890214Y-93015571D01*
X121854500Y-92979857D01*
X121818786Y-92908428D01*
X121818786Y-92765571D01*
X121783071Y-92694143D01*
X121747357Y-92658428D01*
X121675929Y-92622714D01*
X121533071Y-92622714D01*
X121461643Y-92658428D01*
X121425929Y-92694143D01*
X121390214Y-92765571D01*
X121390214Y-92908428D01*
X121425929Y-92979857D01*
X121461643Y-93015571D01*
X121533071Y-93051286D01*
X121675929Y-93051286D01*
X121747357Y-93015571D01*
X121783071Y-92979857D01*
X121818786Y-92908428D01*
X122140214Y-93729857D02*
X122140214Y-93372714D01*
X121783071Y-93337000D01*
X121818786Y-93372714D01*
X121854500Y-93444143D01*
X121854500Y-93622714D01*
X121818786Y-93694143D01*
X121783071Y-93729857D01*
X121711643Y-93765572D01*
X121533071Y-93765572D01*
X121461643Y-93729857D01*
X121425929Y-93694143D01*
X121390214Y-93622714D01*
X121390214Y-93444143D01*
X121425929Y-93372714D01*
X121461643Y-93337000D01*
X122076714Y-95144929D02*
X122076714Y-95573500D01*
X121326714Y-95359214D02*
X122076714Y-95359214D01*
X122076714Y-95716358D02*
X122076714Y-96144929D01*
X121326714Y-95930643D02*
X122076714Y-95930643D01*
X121326714Y-96752072D02*
X121326714Y-96394929D01*
X122076714Y-96394929D01*
X104330548Y-73985429D02*
X105092453Y-73985429D01*
X104711501Y-74366381D02*
X104711501Y-73604476D01*
X104203548Y-90368429D02*
X104965453Y-90368429D01*
X104584501Y-90749381D02*
X104584501Y-89987476D01*
X142875072Y-82175000D02*
X142803643Y-82139286D01*
X142696500Y-82139286D01*
X142589357Y-82175000D01*
X142517929Y-82246429D01*
X142482214Y-82317857D01*
X142446500Y-82460714D01*
X142446500Y-82567857D01*
X142482214Y-82710714D01*
X142517929Y-82782143D01*
X142589357Y-82853571D01*
X142696500Y-82889286D01*
X142767929Y-82889286D01*
X142875072Y-82853571D01*
X142910786Y-82817857D01*
X142910786Y-82567857D01*
X142767929Y-82567857D01*
X143232214Y-82889286D02*
X143232214Y-82139286D01*
X143660786Y-82889286D01*
X143660786Y-82139286D01*
X144017928Y-82889286D02*
X144017928Y-82139286D01*
X144196500Y-82139286D01*
X144303643Y-82175000D01*
X144375071Y-82246429D01*
X144410786Y-82317857D01*
X144446500Y-82460714D01*
X144446500Y-82567857D01*
X144410786Y-82710714D01*
X144375071Y-82782143D01*
X144303643Y-82853571D01*
X144196500Y-82889286D01*
X144017928Y-82889286D01*
X142617143Y-79662786D02*
X143045714Y-79662786D01*
X142831428Y-80412786D02*
X142831428Y-79662786D01*
X143224286Y-80412786D02*
X143617143Y-79912786D01*
X143224286Y-79912786D02*
X143617143Y-80412786D01*
X143902857Y-80412786D02*
X143902857Y-79662786D01*
X144081429Y-79662786D01*
X144188572Y-79698500D01*
X144260000Y-79769929D01*
X144295715Y-79841357D01*
X144331429Y-79984214D01*
X144331429Y-80091357D01*
X144295715Y-80234214D01*
X144260000Y-80305643D01*
X144188572Y-80377071D01*
X144081429Y-80412786D01*
X143902857Y-80412786D01*
X143063572Y-77872786D02*
X142813572Y-77515643D01*
X142635000Y-77872786D02*
X142635000Y-77122786D01*
X142920715Y-77122786D01*
X142992143Y-77158500D01*
X143027858Y-77194214D01*
X143063572Y-77265643D01*
X143063572Y-77372786D01*
X143027858Y-77444214D01*
X142992143Y-77479929D01*
X142920715Y-77515643D01*
X142635000Y-77515643D01*
X143313572Y-77872786D02*
X143706429Y-77372786D01*
X143313572Y-77372786D02*
X143706429Y-77872786D01*
X143992143Y-77872786D02*
X143992143Y-77122786D01*
X144170715Y-77122786D01*
X144277858Y-77158500D01*
X144349286Y-77229929D01*
X144385001Y-77301357D01*
X144420715Y-77444214D01*
X144420715Y-77551357D01*
X144385001Y-77694214D01*
X144349286Y-77765643D01*
X144277858Y-77837071D01*
X144170715Y-77872786D01*
X143992143Y-77872786D01*
X142402857Y-74582786D02*
X142867143Y-74582786D01*
X142617143Y-74868500D01*
X142724285Y-74868500D01*
X142795714Y-74904214D01*
X142831428Y-74939929D01*
X142867143Y-75011357D01*
X142867143Y-75189929D01*
X142831428Y-75261357D01*
X142795714Y-75297071D01*
X142724285Y-75332786D01*
X142510000Y-75332786D01*
X142438571Y-75297071D01*
X142402857Y-75261357D01*
X143188571Y-75261357D02*
X143224286Y-75297071D01*
X143188571Y-75332786D01*
X143152857Y-75297071D01*
X143188571Y-75261357D01*
X143188571Y-75332786D01*
X143474286Y-74582786D02*
X143938572Y-74582786D01*
X143688572Y-74868500D01*
X143795714Y-74868500D01*
X143867143Y-74904214D01*
X143902857Y-74939929D01*
X143938572Y-75011357D01*
X143938572Y-75189929D01*
X143902857Y-75261357D01*
X143867143Y-75297071D01*
X143795714Y-75332786D01*
X143581429Y-75332786D01*
X143510000Y-75297071D01*
X143474286Y-75261357D01*
X144152858Y-74582786D02*
X144402858Y-75332786D01*
X144652858Y-74582786D01*
D12*
X105021573Y-71012857D02*
X105235859Y-71084286D01*
X105307287Y-71155714D01*
X105378716Y-71298571D01*
X105378716Y-71512857D01*
X105307287Y-71655714D01*
X105235859Y-71727143D01*
X105093001Y-71798571D01*
X104521573Y-71798571D01*
X104521573Y-70298571D01*
X105021573Y-70298571D01*
X105164430Y-70370000D01*
X105235859Y-70441429D01*
X105307287Y-70584286D01*
X105307287Y-70727143D01*
X105235859Y-70870000D01*
X105164430Y-70941429D01*
X105021573Y-71012857D01*
X104521573Y-71012857D01*
X106021573Y-71798571D02*
X106021573Y-70298571D01*
X106878716Y-71798571D02*
X106235859Y-70941429D01*
X106878716Y-70298571D02*
X106021573Y-71155714D01*
X108593001Y-70441429D02*
X108664430Y-70370000D01*
X108807287Y-70298571D01*
X109164430Y-70298571D01*
X109307287Y-70370000D01*
X109378716Y-70441429D01*
X109450144Y-70584286D01*
X109450144Y-70727143D01*
X109378716Y-70941429D01*
X108521573Y-71798571D01*
X109450144Y-71798571D01*
X110378715Y-70298571D02*
X110521572Y-70298571D01*
X110664429Y-70370000D01*
X110735858Y-70441429D01*
X110807287Y-70584286D01*
X110878715Y-70870000D01*
X110878715Y-71227143D01*
X110807287Y-71512857D01*
X110735858Y-71655714D01*
X110664429Y-71727143D01*
X110521572Y-71798571D01*
X110378715Y-71798571D01*
X110235858Y-71727143D01*
X110164429Y-71655714D01*
X110093001Y-71512857D01*
X110021572Y-71227143D01*
X110021572Y-70870000D01*
X110093001Y-70584286D01*
X110164429Y-70441429D01*
X110235858Y-70370000D01*
X110378715Y-70298571D01*
X112307286Y-71798571D02*
X111450143Y-71798571D01*
X111878715Y-71798571D02*
X111878715Y-70298571D01*
X111735858Y-70512857D01*
X111593000Y-70655714D01*
X111450143Y-70727143D01*
X113593000Y-70298571D02*
X113307286Y-70298571D01*
X113164429Y-70370000D01*
X113093000Y-70441429D01*
X112950143Y-70655714D01*
X112878714Y-70941429D01*
X112878714Y-71512857D01*
X112950143Y-71655714D01*
X113021571Y-71727143D01*
X113164429Y-71798571D01*
X113450143Y-71798571D01*
X113593000Y-71727143D01*
X113664429Y-71655714D01*
X113735857Y-71512857D01*
X113735857Y-71155714D01*
X113664429Y-71012857D01*
X113593000Y-70941429D01*
X113450143Y-70870000D01*
X113164429Y-70870000D01*
X113021571Y-70941429D01*
X112950143Y-71012857D01*
X112878714Y-71155714D01*
X101855073Y-69068071D02*
X101355073Y-68353786D01*
X100997930Y-69068071D02*
X100997930Y-67568071D01*
X101569358Y-67568071D01*
X101712216Y-67639500D01*
X101783644Y-67710929D01*
X101855073Y-67853786D01*
X101855073Y-68068071D01*
X101783644Y-68210929D01*
X101712216Y-68282357D01*
X101569358Y-68353786D01*
X100997930Y-68353786D01*
X102997930Y-68282357D02*
X102497930Y-68282357D01*
X102497930Y-69068071D02*
X102497930Y-67568071D01*
X103212216Y-67568071D01*
X103783644Y-68496643D02*
X104926501Y-68496643D01*
X106283644Y-68068071D02*
X106283644Y-69068071D01*
X105926501Y-67496643D02*
X105569358Y-68568071D01*
X106497930Y-68568071D01*
X107283644Y-68210929D02*
X107140786Y-68139500D01*
X107069358Y-68068071D01*
X106997929Y-67925214D01*
X106997929Y-67853786D01*
X107069358Y-67710929D01*
X107140786Y-67639500D01*
X107283644Y-67568071D01*
X107569358Y-67568071D01*
X107712215Y-67639500D01*
X107783644Y-67710929D01*
X107855072Y-67853786D01*
X107855072Y-67925214D01*
X107783644Y-68068071D01*
X107712215Y-68139500D01*
X107569358Y-68210929D01*
X107283644Y-68210929D01*
X107140786Y-68282357D01*
X107069358Y-68353786D01*
X106997929Y-68496643D01*
X106997929Y-68782357D01*
X107069358Y-68925214D01*
X107140786Y-68996643D01*
X107283644Y-69068071D01*
X107569358Y-69068071D01*
X107712215Y-68996643D01*
X107783644Y-68925214D01*
X107855072Y-68782357D01*
X107855072Y-68496643D01*
X107783644Y-68353786D01*
X107712215Y-68282357D01*
X107569358Y-68210929D01*
X109212215Y-67568071D02*
X108497929Y-67568071D01*
X108426500Y-68282357D01*
X108497929Y-68210929D01*
X108640786Y-68139500D01*
X108997929Y-68139500D01*
X109140786Y-68210929D01*
X109212215Y-68282357D01*
X109283643Y-68425214D01*
X109283643Y-68782357D01*
X109212215Y-68925214D01*
X109140786Y-68996643D01*
X108997929Y-69068071D01*
X108640786Y-69068071D01*
X108497929Y-68996643D01*
X108426500Y-68925214D01*
X109926500Y-68496643D02*
X111069357Y-68496643D01*
X111783643Y-69068071D02*
X111783643Y-67568071D01*
X112355071Y-67568071D01*
X112497929Y-67639500D01*
X112569357Y-67710929D01*
X112640786Y-67853786D01*
X112640786Y-68068071D01*
X112569357Y-68210929D01*
X112497929Y-68282357D01*
X112355071Y-68353786D01*
X111783643Y-68353786D01*
X113140786Y-67568071D02*
X113497929Y-69068071D01*
X113783643Y-67996643D01*
X114069357Y-69068071D01*
X114426500Y-67568071D01*
X114997929Y-69068071D02*
X114997929Y-67568071D01*
X115497929Y-68639500D01*
X115997929Y-67568071D01*
X115997929Y-69068071D01*
X117640786Y-67568071D02*
X118140786Y-69068071D01*
X118640786Y-67568071D01*
X119926500Y-69068071D02*
X119069357Y-69068071D01*
X119497929Y-69068071D02*
X119497929Y-67568071D01*
X119355072Y-67782357D01*
X119212214Y-67925214D01*
X119069357Y-67996643D01*
D11*
X93377000Y-50801000D02*
X93377000Y-66801000D01*
X93377000Y-66801000D02*
X114647000Y-66801000D01*
X114647000Y-66801000D02*
X114647000Y-50801000D01*
X114647000Y-50801000D02*
X93377000Y-50801000D01*
X127198500Y-83590500D02*
X128198500Y-83590500D01*
X128198500Y-81890500D02*
X127198500Y-81890500D01*
X127214500Y-85686000D02*
X128214500Y-85686000D01*
X128214500Y-83986000D02*
X127214500Y-83986000D01*
X127690500Y-67603000D02*
X126690500Y-67603000D01*
X126690500Y-69303000D02*
X127690500Y-69303000D01*
X127690500Y-65571000D02*
X126690500Y-65571000D01*
X126690500Y-67271000D02*
X127690500Y-67271000D01*
X117911500Y-62332500D02*
X116911500Y-62332500D01*
X116911500Y-64032500D02*
X117911500Y-64032500D01*
X115672500Y-81669000D02*
X115672500Y-82669000D01*
X117372500Y-82669000D02*
X117372500Y-81669000D01*
X103877000Y-96091500D02*
X103877000Y-98091500D01*
X105927000Y-98091500D02*
X105927000Y-96091500D01*
X117768000Y-95575500D02*
X117768000Y-96575500D01*
X119468000Y-96575500D02*
X119468000Y-95575500D01*
X115307000Y-95075500D02*
X115307000Y-97075500D01*
X117357000Y-97075500D02*
X117357000Y-95075500D01*
X116538500Y-87829500D02*
X118538500Y-87829500D01*
X118538500Y-85779500D02*
X116538500Y-85779500D01*
X108436860Y-99286060D02*
X108436860Y-98935540D01*
X108436860Y-95785940D02*
X108436860Y-96136460D01*
X112486440Y-99286060D02*
X112486440Y-98935540D01*
X107985560Y-99286060D02*
X107985560Y-98935540D01*
X107985560Y-95785940D02*
X107985560Y-96136460D01*
X112486440Y-95785940D02*
X112486440Y-96136460D01*
X107985560Y-99286060D02*
X112486440Y-99286060D01*
X107985560Y-95785940D02*
X112486440Y-95785940D01*
X101028500Y-75120500D02*
X101028500Y-82740500D01*
X103568500Y-75120500D02*
X103568500Y-82740500D01*
X103848500Y-72300500D02*
X103848500Y-73850500D01*
X101028500Y-82740500D02*
X103568500Y-82740500D01*
X103568500Y-75120500D02*
X101028500Y-75120500D01*
X100748500Y-73850500D02*
X100748500Y-72300500D01*
X100748500Y-72300500D02*
X103848500Y-72300500D01*
X100838000Y-88709500D02*
X100838000Y-86169500D01*
X100558000Y-91529500D02*
X100558000Y-89979500D01*
X100838000Y-88709500D02*
X103378000Y-88709500D01*
X103658000Y-89979500D02*
X103658000Y-91529500D01*
X103658000Y-91529500D02*
X100558000Y-91529500D01*
X103378000Y-88709500D02*
X103378000Y-86169500D01*
X103378000Y-86169500D02*
X100838000Y-86169500D01*
X113552000Y-82832500D02*
X113552000Y-81632500D01*
X115302000Y-81632500D02*
X115302000Y-82832500D01*
X130013000Y-92061000D02*
X128813000Y-92061000D01*
X128813000Y-90311000D02*
X130013000Y-90311000D01*
X133254000Y-92061000D02*
X132054000Y-92061000D01*
X132054000Y-90311000D02*
X133254000Y-90311000D01*
X122545500Y-80239500D02*
X122570500Y-80239500D01*
X122545500Y-75589500D02*
X122570500Y-75589500D01*
X129295500Y-75589500D02*
X129270500Y-75589500D01*
X129295500Y-80239500D02*
X129270500Y-80239500D01*
X122545500Y-80239500D02*
X122545500Y-75589500D01*
X129295500Y-80239500D02*
X129295500Y-75589500D01*
X122570500Y-80239500D02*
X122570500Y-81314500D01*
X128798500Y-92421000D02*
X128798500Y-92566000D01*
X132948500Y-92421000D02*
X132948500Y-92566000D01*
X132948500Y-97571000D02*
X132948500Y-97426000D01*
X128798500Y-97571000D02*
X128798500Y-97426000D01*
X128798500Y-92421000D02*
X132948500Y-92421000D01*
X128798500Y-97571000D02*
X132948500Y-97571000D01*
X128798500Y-92566000D02*
X127398500Y-92566000D01*
X121986000Y-55108500D02*
X117536000Y-55108500D01*
X123511000Y-61858500D02*
X117536000Y-61858500D01*
X111696500Y-92202000D02*
X111696500Y-95377000D01*
X111696500Y-95377000D02*
X113474500Y-95377000D01*
X113474500Y-95377000D02*
X113474500Y-92202000D01*
X107124500Y-92202000D02*
X107124500Y-95377000D01*
X107124500Y-95377000D02*
X108902500Y-95377000D01*
X108902500Y-95377000D02*
X108902500Y-92202000D01*
X113728500Y-86106000D02*
X113728500Y-92202000D01*
X113728500Y-92202000D02*
X106870500Y-92202000D01*
X106870500Y-92202000D02*
X106870500Y-84328000D01*
X106870500Y-84201000D02*
X113728500Y-84201000D01*
X113728500Y-84328000D02*
X113728500Y-86106000D01*
X115597940Y-90932000D02*
X115846860Y-90632280D01*
X115846860Y-90632280D02*
X115948460Y-90482420D01*
X115948460Y-90482420D02*
X115948460Y-91330780D01*
X115247420Y-89430860D02*
X115247420Y-91231720D01*
X115247420Y-89430860D02*
X115897660Y-89430860D01*
X119748300Y-89430860D02*
X119748300Y-91231720D01*
X119748300Y-89430860D02*
X119098060Y-89430860D01*
X110444280Y-78699360D02*
X110804960Y-80170020D01*
X110804960Y-80170020D02*
X111084360Y-79108300D01*
X111084360Y-79108300D02*
X111394240Y-80180180D01*
X111394240Y-80180180D02*
X111734600Y-78729840D01*
X109024420Y-79390240D02*
X109814360Y-79380080D01*
X109814360Y-79380080D02*
X109824520Y-79390240D01*
X109824520Y-79390240D02*
X109824520Y-79380080D01*
X109865160Y-78668880D02*
X109865160Y-80210660D01*
X108976160Y-78658720D02*
X108976160Y-80228440D01*
X108976160Y-80228440D02*
X108986320Y-80218280D01*
X108424980Y-78760320D02*
X108074460Y-78679040D01*
X108074460Y-78679040D02*
X107754420Y-78668880D01*
X107754420Y-78668880D02*
X107515660Y-78869540D01*
X107515660Y-78869540D02*
X107485180Y-79138780D01*
X107485180Y-79138780D02*
X107726480Y-79380080D01*
X107726480Y-79380080D02*
X108115100Y-79509620D01*
X108115100Y-79509620D02*
X108295440Y-79669640D01*
X108295440Y-79669640D02*
X108336080Y-79969360D01*
X108336080Y-79969360D02*
X108104940Y-80190340D01*
X108104940Y-80190340D02*
X107784900Y-80218280D01*
X107784900Y-80218280D02*
X107434380Y-80109060D01*
X106395520Y-78658720D02*
X106146600Y-78679040D01*
X106146600Y-78679040D02*
X105905300Y-78920340D01*
X105905300Y-78920340D02*
X105816400Y-79410560D01*
X105816400Y-79410560D02*
X105844340Y-79758540D01*
X105844340Y-79758540D02*
X106045000Y-80078580D01*
X106045000Y-80078580D02*
X106296460Y-80200500D01*
X106296460Y-80200500D02*
X106606340Y-80129380D01*
X106606340Y-80129380D02*
X106824780Y-79949040D01*
X106824780Y-79949040D02*
X106895900Y-79489300D01*
X106895900Y-79489300D02*
X106845100Y-79080360D01*
X106845100Y-79080360D02*
X106735880Y-78798420D01*
X106735880Y-78798420D02*
X106375200Y-78668880D01*
X106994960Y-76939140D02*
X106735880Y-77500480D01*
X106735880Y-77500480D02*
X107274360Y-78018640D01*
X107274360Y-78018640D02*
X107795060Y-77749400D01*
X107795060Y-77749400D02*
X108074460Y-77909420D01*
X109514640Y-77889100D02*
X109844840Y-77698600D01*
X109844840Y-77698600D02*
X110284260Y-78028800D01*
X110284260Y-78028800D02*
X110756700Y-77538580D01*
X110756700Y-77538580D02*
X110474760Y-77058520D01*
X110474760Y-77058520D02*
X110665260Y-76588620D01*
X110665260Y-76588620D02*
X111274860Y-76400660D01*
X111274860Y-76400660D02*
X111274860Y-75719940D01*
X111274860Y-75719940D02*
X110716060Y-75580240D01*
X110716060Y-75580240D02*
X110515400Y-75008740D01*
X110515400Y-75008740D02*
X110784640Y-74538840D01*
X110784640Y-74538840D02*
X110314740Y-74028300D01*
X110314740Y-74028300D02*
X109796580Y-74289920D01*
X109796580Y-74289920D02*
X109326680Y-74089260D01*
X109326680Y-74089260D02*
X109156500Y-73548240D01*
X109156500Y-73548240D02*
X108465620Y-73530460D01*
X108465620Y-73530460D02*
X108254800Y-74079100D01*
X108254800Y-74079100D02*
X107835700Y-74249280D01*
X107835700Y-74249280D02*
X107284520Y-73980040D01*
X107284520Y-73980040D02*
X106766360Y-74508360D01*
X106766360Y-74508360D02*
X107015280Y-75049380D01*
X107015280Y-75049380D02*
X106845100Y-75529440D01*
X106845100Y-75529440D02*
X106296460Y-75628500D01*
X106296460Y-75628500D02*
X106286300Y-76329540D01*
X106286300Y-76329540D02*
X106845100Y-76530200D01*
X106845100Y-76530200D02*
X106984800Y-76928980D01*
X109126020Y-76908660D02*
X109425740Y-76758800D01*
X109425740Y-76758800D02*
X109626400Y-76560680D01*
X109626400Y-76560680D02*
X109776260Y-76159360D01*
X109776260Y-76159360D02*
X109776260Y-75760580D01*
X109776260Y-75760580D02*
X109626400Y-75410060D01*
X109626400Y-75410060D02*
X109174280Y-75059540D01*
X109174280Y-75059540D02*
X108724700Y-75008740D01*
X108724700Y-75008740D02*
X108325920Y-75110340D01*
X108325920Y-75110340D02*
X107924600Y-75458320D01*
X107924600Y-75458320D02*
X107774740Y-75910440D01*
X107774740Y-75910440D02*
X107825540Y-76408280D01*
X107825540Y-76408280D02*
X108074460Y-76710540D01*
X108074460Y-76710540D02*
X108424980Y-76908660D01*
X108424980Y-76908660D02*
X108074460Y-77909420D01*
X109126020Y-76908660D02*
X109524800Y-77909420D01*
X145542000Y-76263500D02*
X145542000Y-83883500D01*
X148082000Y-76263500D02*
X148082000Y-83883500D01*
X148362000Y-73443500D02*
X148362000Y-74993500D01*
X145542000Y-83883500D02*
X148082000Y-83883500D01*
X148082000Y-76263500D02*
X145542000Y-76263500D01*
X145262000Y-74993500D02*
X145262000Y-73443500D01*
X145262000Y-73443500D02*
X148362000Y-73443500D01*
D12*
X142683000Y-51053000D02*
X146683000Y-51053000D01*
X141683000Y-55453000D02*
X142683000Y-55453000D01*
X140683000Y-51053000D02*
X141683000Y-51053000D01*
X139683000Y-55453000D02*
X140683000Y-55453000D01*
X137683000Y-55453000D02*
X138583000Y-55453000D01*
X138583000Y-51053000D02*
X139683000Y-51053000D01*
X134583000Y-51053000D02*
X137683000Y-51053000D01*
X136683000Y-56253000D02*
X136683000Y-51153000D01*
D13*
X134583000Y-56007000D02*
X134583000Y-51453000D01*
D11*
X129583000Y-70453000D02*
X149583000Y-70453000D01*
X149583000Y-56453000D02*
X149583000Y-66453000D01*
X129583000Y-56453000D02*
X129583000Y-66453000D01*
X149583000Y-50453000D02*
X129583000Y-50453000D01*
X149583000Y-56453000D02*
X149583000Y-50453000D01*
X129583000Y-56453000D02*
X149583000Y-56453000D01*
X129583000Y-50453000D02*
X129583000Y-56453000D01*
D12*
X137683000Y-55453000D02*
X137683000Y-51053000D01*
X138583000Y-55453000D02*
X138583000Y-51053000D01*
X139683000Y-55453000D02*
X139683000Y-51053000D01*
X140683000Y-55453000D02*
X140683000Y-51053000D01*
X141683000Y-55453000D02*
X141683000Y-51053000D01*
X142683000Y-55453000D02*
X142683000Y-51053000D01*
D11*
X125666500Y-95631000D02*
X125666500Y-90551000D01*
X125666500Y-90551000D02*
X123126500Y-90551000D01*
X123126500Y-90551000D02*
X123126500Y-95631000D01*
X122846500Y-98451000D02*
X122846500Y-96901000D01*
X123126500Y-95631000D02*
X125666500Y-95631000D01*
X125946500Y-96901000D02*
X125946500Y-98451000D01*
X125946500Y-98451000D02*
X122846500Y-98451000D01*
X134764000Y-98492500D02*
X149764000Y-98492500D01*
X134764000Y-86292500D02*
X149764000Y-86292500D01*
X149764000Y-98492500D02*
X149764000Y-86292500D01*
X134764000Y-98492500D02*
X134764000Y-86292500D01*
X119210780Y-79471890D02*
X119210780Y-76971890D01*
X119210780Y-76971890D02*
X120310780Y-76971890D01*
X120310780Y-76971890D02*
X120310780Y-79471890D01*
X120310780Y-79471890D02*
X119210780Y-79471890D01*
X120560780Y-79721890D02*
X120560780Y-76721890D01*
X118960780Y-79721890D02*
X118960780Y-76721890D01*
X118960780Y-76721890D02*
X120560780Y-76721890D01*
X118960780Y-79721890D02*
X120560780Y-79721890D01*
X121510780Y-81221890D02*
X121510780Y-75221890D01*
X118010780Y-81221890D02*
X118010780Y-75221890D01*
X118010780Y-81221890D02*
X121510780Y-81221890D01*
X118010780Y-75221890D02*
X121510780Y-75221890D01*
X115019381Y-66334333D02*
X115733667Y-66334333D01*
X115876524Y-66381953D01*
X115971762Y-66477191D01*
X116019381Y-66620048D01*
X116019381Y-66715286D01*
X115114619Y-65905762D02*
X115067000Y-65858143D01*
X115019381Y-65762905D01*
X115019381Y-65524809D01*
X115067000Y-65429571D01*
X115114619Y-65381952D01*
X115209857Y-65334333D01*
X115305095Y-65334333D01*
X115447952Y-65381952D01*
X116019381Y-65953381D01*
X116019381Y-65334333D01*
X130452834Y-83097643D02*
X130405215Y-83145262D01*
X130262358Y-83192881D01*
X130167120Y-83192881D01*
X130024262Y-83145262D01*
X129929024Y-83050024D01*
X129881405Y-82954786D01*
X129833786Y-82764310D01*
X129833786Y-82621452D01*
X129881405Y-82430976D01*
X129929024Y-82335738D01*
X130024262Y-82240500D01*
X130167120Y-82192881D01*
X130262358Y-82192881D01*
X130405215Y-82240500D01*
X130452834Y-82288119D01*
X131405215Y-83192881D02*
X130833786Y-83192881D01*
X131119500Y-83192881D02*
X131119500Y-82192881D01*
X131024262Y-82335738D01*
X130929024Y-82430976D01*
X130833786Y-82478595D01*
X130452834Y-85383643D02*
X130405215Y-85431262D01*
X130262358Y-85478881D01*
X130167120Y-85478881D01*
X130024262Y-85431262D01*
X129929024Y-85336024D01*
X129881405Y-85240786D01*
X129833786Y-85050310D01*
X129833786Y-84907452D01*
X129881405Y-84716976D01*
X129929024Y-84621738D01*
X130024262Y-84526500D01*
X130167120Y-84478881D01*
X130262358Y-84478881D01*
X130405215Y-84526500D01*
X130452834Y-84574119D01*
X130833786Y-84574119D02*
X130881405Y-84526500D01*
X130976643Y-84478881D01*
X131214739Y-84478881D01*
X131309977Y-84526500D01*
X131357596Y-84574119D01*
X131405215Y-84669357D01*
X131405215Y-84764595D01*
X131357596Y-84907452D01*
X130786167Y-85478881D01*
X131405215Y-85478881D01*
X124166334Y-69000643D02*
X124118715Y-69048262D01*
X123975858Y-69095881D01*
X123880620Y-69095881D01*
X123737762Y-69048262D01*
X123642524Y-68953024D01*
X123594905Y-68857786D01*
X123547286Y-68667310D01*
X123547286Y-68524452D01*
X123594905Y-68333976D01*
X123642524Y-68238738D01*
X123737762Y-68143500D01*
X123880620Y-68095881D01*
X123975858Y-68095881D01*
X124118715Y-68143500D01*
X124166334Y-68191119D01*
X124499667Y-68095881D02*
X125118715Y-68095881D01*
X124785381Y-68476833D01*
X124928239Y-68476833D01*
X125023477Y-68524452D01*
X125071096Y-68572071D01*
X125118715Y-68667310D01*
X125118715Y-68905405D01*
X125071096Y-69000643D01*
X125023477Y-69048262D01*
X124928239Y-69095881D01*
X124642524Y-69095881D01*
X124547286Y-69048262D01*
X124499667Y-69000643D01*
X124166334Y-66841643D02*
X124118715Y-66889262D01*
X123975858Y-66936881D01*
X123880620Y-66936881D01*
X123737762Y-66889262D01*
X123642524Y-66794024D01*
X123594905Y-66698786D01*
X123547286Y-66508310D01*
X123547286Y-66365452D01*
X123594905Y-66174976D01*
X123642524Y-66079738D01*
X123737762Y-65984500D01*
X123880620Y-65936881D01*
X123975858Y-65936881D01*
X124118715Y-65984500D01*
X124166334Y-66032119D01*
X125023477Y-66270214D02*
X125023477Y-66936881D01*
X124785381Y-65889262D02*
X124547286Y-66603548D01*
X125166334Y-66603548D01*
X120165834Y-63476143D02*
X120118215Y-63523762D01*
X119975358Y-63571381D01*
X119880120Y-63571381D01*
X119737262Y-63523762D01*
X119642024Y-63428524D01*
X119594405Y-63333286D01*
X119546786Y-63142810D01*
X119546786Y-62999952D01*
X119594405Y-62809476D01*
X119642024Y-62714238D01*
X119737262Y-62619000D01*
X119880120Y-62571381D01*
X119975358Y-62571381D01*
X120118215Y-62619000D01*
X120165834Y-62666619D01*
X121070596Y-62571381D02*
X120594405Y-62571381D01*
X120546786Y-63047571D01*
X120594405Y-62999952D01*
X120689643Y-62952333D01*
X120927739Y-62952333D01*
X121022977Y-62999952D01*
X121070596Y-63047571D01*
X121118215Y-63142810D01*
X121118215Y-63380905D01*
X121070596Y-63476143D01*
X121022977Y-63523762D01*
X120927739Y-63571381D01*
X120689643Y-63571381D01*
X120594405Y-63523762D01*
X120546786Y-63476143D01*
X114196834Y-80240143D02*
X114149215Y-80287762D01*
X114006358Y-80335381D01*
X113911120Y-80335381D01*
X113768262Y-80287762D01*
X113673024Y-80192524D01*
X113625405Y-80097286D01*
X113577786Y-79906810D01*
X113577786Y-79763952D01*
X113625405Y-79573476D01*
X113673024Y-79478238D01*
X113768262Y-79383000D01*
X113911120Y-79335381D01*
X114006358Y-79335381D01*
X114149215Y-79383000D01*
X114196834Y-79430619D01*
X115053977Y-79335381D02*
X114863500Y-79335381D01*
X114768262Y-79383000D01*
X114720643Y-79430619D01*
X114625405Y-79573476D01*
X114577786Y-79763952D01*
X114577786Y-80144905D01*
X114625405Y-80240143D01*
X114673024Y-80287762D01*
X114768262Y-80335381D01*
X114958739Y-80335381D01*
X115053977Y-80287762D01*
X115101596Y-80240143D01*
X115149215Y-80144905D01*
X115149215Y-79906810D01*
X115101596Y-79811571D01*
X115053977Y-79763952D01*
X114958739Y-79716333D01*
X114768262Y-79716333D01*
X114673024Y-79763952D01*
X114625405Y-79811571D01*
X114577786Y-79906810D01*
X104798834Y-94273643D02*
X104751215Y-94321262D01*
X104608358Y-94368881D01*
X104513120Y-94368881D01*
X104370262Y-94321262D01*
X104275024Y-94226024D01*
X104227405Y-94130786D01*
X104179786Y-93940310D01*
X104179786Y-93797452D01*
X104227405Y-93606976D01*
X104275024Y-93511738D01*
X104370262Y-93416500D01*
X104513120Y-93368881D01*
X104608358Y-93368881D01*
X104751215Y-93416500D01*
X104798834Y-93464119D01*
X105132167Y-93368881D02*
X105798834Y-93368881D01*
X105370262Y-94368881D01*
X118387834Y-99099643D02*
X118340215Y-99147262D01*
X118197358Y-99194881D01*
X118102120Y-99194881D01*
X117959262Y-99147262D01*
X117864024Y-99052024D01*
X117816405Y-98956786D01*
X117768786Y-98766310D01*
X117768786Y-98623452D01*
X117816405Y-98432976D01*
X117864024Y-98337738D01*
X117959262Y-98242500D01*
X118102120Y-98194881D01*
X118197358Y-98194881D01*
X118340215Y-98242500D01*
X118387834Y-98290119D01*
X118959262Y-98623452D02*
X118864024Y-98575833D01*
X118816405Y-98528214D01*
X118768786Y-98432976D01*
X118768786Y-98385357D01*
X118816405Y-98290119D01*
X118864024Y-98242500D01*
X118959262Y-98194881D01*
X119149739Y-98194881D01*
X119244977Y-98242500D01*
X119292596Y-98290119D01*
X119340215Y-98385357D01*
X119340215Y-98432976D01*
X119292596Y-98528214D01*
X119244977Y-98575833D01*
X119149739Y-98623452D01*
X118959262Y-98623452D01*
X118864024Y-98671071D01*
X118816405Y-98718690D01*
X118768786Y-98813929D01*
X118768786Y-99004405D01*
X118816405Y-99099643D01*
X118864024Y-99147262D01*
X118959262Y-99194881D01*
X119149739Y-99194881D01*
X119244977Y-99147262D01*
X119292596Y-99099643D01*
X119340215Y-99004405D01*
X119340215Y-98813929D01*
X119292596Y-98718690D01*
X119244977Y-98671071D01*
X119149739Y-98623452D01*
X114784143Y-95670666D02*
X114831762Y-95718285D01*
X114879381Y-95861142D01*
X114879381Y-95956380D01*
X114831762Y-96099238D01*
X114736524Y-96194476D01*
X114641286Y-96242095D01*
X114450810Y-96289714D01*
X114307952Y-96289714D01*
X114117476Y-96242095D01*
X114022238Y-96194476D01*
X113927000Y-96099238D01*
X113879381Y-95956380D01*
X113879381Y-95861142D01*
X113927000Y-95718285D01*
X113974619Y-95670666D01*
X114879381Y-95194476D02*
X114879381Y-95004000D01*
X114831762Y-94908761D01*
X114784143Y-94861142D01*
X114641286Y-94765904D01*
X114450810Y-94718285D01*
X114069857Y-94718285D01*
X113974619Y-94765904D01*
X113927000Y-94813523D01*
X113879381Y-94908761D01*
X113879381Y-95099238D01*
X113927000Y-95194476D01*
X113974619Y-95242095D01*
X114069857Y-95289714D01*
X114307952Y-95289714D01*
X114403190Y-95242095D01*
X114450810Y-95194476D01*
X114498429Y-95099238D01*
X114498429Y-94908761D01*
X114450810Y-94813523D01*
X114403190Y-94765904D01*
X114307952Y-94718285D01*
X120896143Y-87098143D02*
X120848524Y-87145762D01*
X120705667Y-87193381D01*
X120610429Y-87193381D01*
X120467571Y-87145762D01*
X120372333Y-87050524D01*
X120324714Y-86955286D01*
X120277095Y-86764810D01*
X120277095Y-86621952D01*
X120324714Y-86431476D01*
X120372333Y-86336238D01*
X120467571Y-86241000D01*
X120610429Y-86193381D01*
X120705667Y-86193381D01*
X120848524Y-86241000D01*
X120896143Y-86288619D01*
X121848524Y-87193381D02*
X121277095Y-87193381D01*
X121562809Y-87193381D02*
X121562809Y-86193381D01*
X121467571Y-86336238D01*
X121372333Y-86431476D01*
X121277095Y-86479095D01*
X122467571Y-86193381D02*
X122562810Y-86193381D01*
X122658048Y-86241000D01*
X122705667Y-86288619D01*
X122753286Y-86383857D01*
X122800905Y-86574333D01*
X122800905Y-86812429D01*
X122753286Y-87002905D01*
X122705667Y-87098143D01*
X122658048Y-87145762D01*
X122562810Y-87193381D01*
X122467571Y-87193381D01*
X122372333Y-87145762D01*
X122324714Y-87098143D01*
X122277095Y-87002905D01*
X122229476Y-86812429D01*
X122229476Y-86574333D01*
X122277095Y-86383857D01*
X122324714Y-86288619D01*
X122372333Y-86241000D01*
X122467571Y-86193381D01*
X104544905Y-92590881D02*
X104544905Y-91590881D01*
X104783000Y-91590881D01*
X104925858Y-91638500D01*
X105021096Y-91733738D01*
X105068715Y-91828976D01*
X105116334Y-92019452D01*
X105116334Y-92162310D01*
X105068715Y-92352786D01*
X105021096Y-92448024D01*
X104925858Y-92543262D01*
X104783000Y-92590881D01*
X104544905Y-92590881D01*
X106068715Y-92590881D02*
X105497286Y-92590881D01*
X105783000Y-92590881D02*
X105783000Y-91590881D01*
X105687762Y-91733738D01*
X105592524Y-91828976D01*
X105497286Y-91876595D01*
X101560405Y-84462881D02*
X101560405Y-83462881D01*
X101941358Y-83462881D01*
X102036596Y-83510500D01*
X102084215Y-83558119D01*
X102131834Y-83653357D01*
X102131834Y-83796214D01*
X102084215Y-83891452D01*
X102036596Y-83939071D01*
X101941358Y-83986690D01*
X101560405Y-83986690D01*
X103084215Y-84462881D02*
X102512786Y-84462881D01*
X102798500Y-84462881D02*
X102798500Y-83462881D01*
X102703262Y-83605738D01*
X102608024Y-83700976D01*
X102512786Y-83748595D01*
X101433405Y-92908381D02*
X101433405Y-91908381D01*
X101814358Y-91908381D01*
X101909596Y-91956000D01*
X101957215Y-92003619D01*
X102004834Y-92098857D01*
X102004834Y-92241714D01*
X101957215Y-92336952D01*
X101909596Y-92384571D01*
X101814358Y-92432190D01*
X101433405Y-92432190D01*
X102385786Y-92003619D02*
X102433405Y-91956000D01*
X102528643Y-91908381D01*
X102766739Y-91908381D01*
X102861977Y-91956000D01*
X102909596Y-92003619D01*
X102957215Y-92098857D01*
X102957215Y-92194095D01*
X102909596Y-92336952D01*
X102338167Y-92908381D01*
X102957215Y-92908381D01*
X116419334Y-80144881D02*
X116086000Y-79668690D01*
X115847905Y-80144881D02*
X115847905Y-79144881D01*
X116228858Y-79144881D01*
X116324096Y-79192500D01*
X116371715Y-79240119D01*
X116419334Y-79335357D01*
X116419334Y-79478214D01*
X116371715Y-79573452D01*
X116324096Y-79621071D01*
X116228858Y-79668690D01*
X115847905Y-79668690D01*
X117371715Y-80144881D02*
X116800286Y-80144881D01*
X117086000Y-80144881D02*
X117086000Y-79144881D01*
X116990762Y-79287738D01*
X116895524Y-79382976D01*
X116800286Y-79430595D01*
X129246334Y-89538381D02*
X128913000Y-89062190D01*
X128674905Y-89538381D02*
X128674905Y-88538381D01*
X129055858Y-88538381D01*
X129151096Y-88586000D01*
X129198715Y-88633619D01*
X129246334Y-88728857D01*
X129246334Y-88871714D01*
X129198715Y-88966952D01*
X129151096Y-89014571D01*
X129055858Y-89062190D01*
X128674905Y-89062190D01*
X129627286Y-88633619D02*
X129674905Y-88586000D01*
X129770143Y-88538381D01*
X130008239Y-88538381D01*
X130103477Y-88586000D01*
X130151096Y-88633619D01*
X130198715Y-88728857D01*
X130198715Y-88824095D01*
X130151096Y-88966952D01*
X129579667Y-89538381D01*
X130198715Y-89538381D01*
X132487334Y-89538381D02*
X132154000Y-89062190D01*
X131915905Y-89538381D02*
X131915905Y-88538381D01*
X132296858Y-88538381D01*
X132392096Y-88586000D01*
X132439715Y-88633619D01*
X132487334Y-88728857D01*
X132487334Y-88871714D01*
X132439715Y-88966952D01*
X132392096Y-89014571D01*
X132296858Y-89062190D01*
X131915905Y-89062190D01*
X132820667Y-88538381D02*
X133439715Y-88538381D01*
X133106381Y-88919333D01*
X133249239Y-88919333D01*
X133344477Y-88966952D01*
X133392096Y-89014571D01*
X133439715Y-89109810D01*
X133439715Y-89347905D01*
X133392096Y-89443143D01*
X133344477Y-89490762D01*
X133249239Y-89538381D01*
X132963524Y-89538381D01*
X132868286Y-89490762D01*
X132820667Y-89443143D01*
X123317095Y-72604381D02*
X123317095Y-73413905D01*
X123364714Y-73509143D01*
X123412333Y-73556762D01*
X123507571Y-73604381D01*
X123698048Y-73604381D01*
X123793286Y-73556762D01*
X123840905Y-73509143D01*
X123888524Y-73413905D01*
X123888524Y-72604381D01*
X124317095Y-72699619D02*
X124364714Y-72652000D01*
X124459952Y-72604381D01*
X124698048Y-72604381D01*
X124793286Y-72652000D01*
X124840905Y-72699619D01*
X124888524Y-72794857D01*
X124888524Y-72890095D01*
X124840905Y-73032952D01*
X124269476Y-73604381D01*
X124888524Y-73604381D01*
X130492595Y-98258381D02*
X130492595Y-99067905D01*
X130540214Y-99163143D01*
X130587833Y-99210762D01*
X130683071Y-99258381D01*
X130873548Y-99258381D01*
X130968786Y-99210762D01*
X131016405Y-99163143D01*
X131064024Y-99067905D01*
X131064024Y-98258381D01*
X131444976Y-98258381D02*
X132064024Y-98258381D01*
X131730690Y-98639333D01*
X131873548Y-98639333D01*
X131968786Y-98686952D01*
X132016405Y-98734571D01*
X132064024Y-98829810D01*
X132064024Y-99067905D01*
X132016405Y-99163143D01*
X131968786Y-99210762D01*
X131873548Y-99258381D01*
X131587833Y-99258381D01*
X131492595Y-99210762D01*
X131444976Y-99163143D01*
X119126095Y-53681381D02*
X119126095Y-54490905D01*
X119173714Y-54586143D01*
X119221333Y-54633762D01*
X119316571Y-54681381D01*
X119507048Y-54681381D01*
X119602286Y-54633762D01*
X119649905Y-54586143D01*
X119697524Y-54490905D01*
X119697524Y-53681381D01*
X120602286Y-54014714D02*
X120602286Y-54681381D01*
X120364190Y-53633762D02*
X120126095Y-54348048D01*
X120745143Y-54348048D01*
X109537595Y-82764381D02*
X109537595Y-83573905D01*
X109585214Y-83669143D01*
X109632833Y-83716762D01*
X109728071Y-83764381D01*
X109918548Y-83764381D01*
X110013786Y-83716762D01*
X110061405Y-83669143D01*
X110109024Y-83573905D01*
X110109024Y-82764381D01*
X111061405Y-82764381D02*
X110585214Y-82764381D01*
X110537595Y-83240571D01*
X110585214Y-83192952D01*
X110680452Y-83145333D01*
X110918548Y-83145333D01*
X111013786Y-83192952D01*
X111061405Y-83240571D01*
X111109024Y-83335810D01*
X111109024Y-83573905D01*
X111061405Y-83669143D01*
X111013786Y-83716762D01*
X110918548Y-83764381D01*
X110680452Y-83764381D01*
X110585214Y-83716762D01*
X110537595Y-83669143D01*
X114363595Y-88098381D02*
X114363595Y-88907905D01*
X114411214Y-89003143D01*
X114458833Y-89050762D01*
X114554071Y-89098381D01*
X114744548Y-89098381D01*
X114839786Y-89050762D01*
X114887405Y-89003143D01*
X114935024Y-88907905D01*
X114935024Y-88098381D01*
X115839786Y-88098381D02*
X115649309Y-88098381D01*
X115554071Y-88146000D01*
X115506452Y-88193619D01*
X115411214Y-88336476D01*
X115363595Y-88526952D01*
X115363595Y-88907905D01*
X115411214Y-89003143D01*
X115458833Y-89050762D01*
X115554071Y-89098381D01*
X115744548Y-89098381D01*
X115839786Y-89050762D01*
X115887405Y-89003143D01*
X115935024Y-88907905D01*
X115935024Y-88669810D01*
X115887405Y-88574571D01*
X115839786Y-88526952D01*
X115744548Y-88479333D01*
X115554071Y-88479333D01*
X115458833Y-88526952D01*
X115411214Y-88574571D01*
X115363595Y-88669810D01*
X146010405Y-72969381D02*
X146010405Y-71969381D01*
X146391358Y-71969381D01*
X146486596Y-72017000D01*
X146534215Y-72064619D01*
X146581834Y-72159857D01*
X146581834Y-72302714D01*
X146534215Y-72397952D01*
X146486596Y-72445571D01*
X146391358Y-72493190D01*
X146010405Y-72493190D01*
X146915167Y-71969381D02*
X147534215Y-71969381D01*
X147200881Y-72350333D01*
X147343739Y-72350333D01*
X147438977Y-72397952D01*
X147486596Y-72445571D01*
X147534215Y-72540810D01*
X147534215Y-72778905D01*
X147486596Y-72874143D01*
X147438977Y-72921762D01*
X147343739Y-72969381D01*
X147058024Y-72969381D01*
X146962786Y-72921762D01*
X146915167Y-72874143D01*
X131035381Y-54314905D02*
X131844905Y-54314905D01*
X131940143Y-54267286D01*
X131987762Y-54219667D01*
X132035381Y-54124429D01*
X132035381Y-53933952D01*
X131987762Y-53838714D01*
X131940143Y-53791095D01*
X131844905Y-53743476D01*
X131035381Y-53743476D01*
X132035381Y-52743476D02*
X132035381Y-53314905D01*
X132035381Y-53029191D02*
X131035381Y-53029191D01*
X131178238Y-53124429D01*
X131273476Y-53219667D01*
X131321095Y-53314905D01*
X123721905Y-89669881D02*
X123721905Y-88669881D01*
X124102858Y-88669881D01*
X124198096Y-88717500D01*
X124245715Y-88765119D01*
X124293334Y-88860357D01*
X124293334Y-89003214D01*
X124245715Y-89098452D01*
X124198096Y-89146071D01*
X124102858Y-89193690D01*
X123721905Y-89193690D01*
X125150477Y-89003214D02*
X125150477Y-89669881D01*
X124912381Y-88622262D02*
X124674286Y-89336548D01*
X125293334Y-89336548D01*
X138096667Y-84605881D02*
X138096667Y-85320167D01*
X138049047Y-85463024D01*
X137953809Y-85558262D01*
X137810952Y-85605881D01*
X137715714Y-85605881D01*
X139096667Y-85605881D02*
X138525238Y-85605881D01*
X138810952Y-85605881D02*
X138810952Y-84605881D01*
X138715714Y-84748738D01*
X138620476Y-84843976D01*
X138525238Y-84891595D01*
X119086381Y-72080381D02*
X118753047Y-71604190D01*
X118514952Y-72080381D02*
X118514952Y-71080381D01*
X118895905Y-71080381D01*
X118991143Y-71128000D01*
X119038762Y-71175619D01*
X119086381Y-71270857D01*
X119086381Y-71413714D01*
X119038762Y-71508952D01*
X118991143Y-71556571D01*
X118895905Y-71604190D01*
X118514952Y-71604190D01*
X119467333Y-72032762D02*
X119610190Y-72080381D01*
X119848286Y-72080381D01*
X119943524Y-72032762D01*
X119991143Y-71985143D01*
X120038762Y-71889905D01*
X120038762Y-71794667D01*
X119991143Y-71699429D01*
X119943524Y-71651810D01*
X119848286Y-71604190D01*
X119657809Y-71556571D01*
X119562571Y-71508952D01*
X119514952Y-71461333D01*
X119467333Y-71366095D01*
X119467333Y-71270857D01*
X119514952Y-71175619D01*
X119562571Y-71128000D01*
X119657809Y-71080381D01*
X119895905Y-71080381D01*
X120038762Y-71128000D01*
X120324476Y-71080381D02*
X120895905Y-71080381D01*
X120610190Y-72080381D02*
X120610190Y-71080381D01*
M02*
