M48
;DRILL file {KiCad 4.0.2-stable} date 3/15/2016 3:05:38 PM
;FORMAT={2:4/ absolute / inch / suppress leading zeros}
FMAT,2
INCH,TZ
T1C0.016
T2C0.028
T3C0.035
T4C0.040
%
G90
G05
M72
T1
X44600Y-30975
X45800Y-33400
X45918Y-29718
X46500Y-32400
X46500Y-33200
X46700Y-27600
X47075Y-25525
X48000Y-30766
X48225Y-34625
X48300Y-25525
X48400Y-28400
X48679Y-29921
X48975Y-32750
X49600Y-28400
X50125Y-34625
X50500Y-28400
X51518Y-29418
X51525Y-30975
X52475Y-30425
X53175Y-35950
X53425Y-29000
X54421Y-29246
T2
X40300Y-36975
X47400Y-36975
X49725Y-34025
T3
X43550Y-21398
X43550Y-22398
X43550Y-23398
X43550Y-24398
X44550Y-21898
X44550Y-22898
X44550Y-23898
X44550Y-24898
X54694Y-35371
X54694Y-36174
X54694Y-36977
X55694Y-35773
X55694Y-36576
X55694Y-37379
T4
X40200Y-34425
X40200Y-35425
X40275Y-29075
X40275Y-30075
X40275Y-31075
X40275Y-32075
X48975Y-36150
X48975Y-37150
X48975Y-38150
X51450Y-26950
X52450Y-26950
X53450Y-26950
X54450Y-26950
X55450Y-26950
X56450Y-26950
X57450Y-26950
X57800Y-29525
X57800Y-30525
X57800Y-31525
X57800Y-32525
X58450Y-26950
T0
M30
