G04 #@! TF.FileFunction,Soldermask,Top*
%FSLAX46Y46*%
G04 Gerber Fmt 4.6, Leading zero omitted, Abs format (unit mm)*
G04 Created by KiCad (PCBNEW 4.0.2-stable) date 3/15/2016 3:05:28 PM*
%MOMM*%
G01*
G04 APERTURE LIST*
%ADD10C,0.100000*%
%ADD11C,3.250000*%
%ADD12R,1.500000X1.500000*%
%ADD13C,1.500000*%
%ADD14C,1.300000*%
%ADD15C,2.100000*%
%ADD16R,1.000000X1.250000*%
%ADD17R,1.250000X1.000000*%
%ADD18R,1.600000X1.000000*%
%ADD19R,1.000000X1.600000*%
%ADD20R,2.499360X1.800860*%
%ADD21R,2.032000X1.727200*%
%ADD22O,2.032000X1.727200*%
%ADD23R,2.032000X2.032000*%
%ADD24O,2.032000X2.032000*%
%ADD25R,1.300000X0.700000*%
%ADD26R,0.700000X1.300000*%
%ADD27R,1.600000X2.180000*%
%ADD28R,0.400000X1.000000*%
%ADD29R,1.550000X0.600000*%
%ADD30R,1.450000X0.450000*%
%ADD31R,1.651000X3.048000*%
%ADD32R,6.096000X6.096000*%
%ADD33R,1.000760X1.501140*%
%ADD34R,1.998980X2.999740*%
%ADD35R,1.727200X2.032000*%
%ADD36O,1.727200X2.032000*%
G04 APERTURE END LIST*
D10*
D11*
X104267000Y-64521000D03*
X104267000Y-53081000D03*
D12*
X110617000Y-54351000D03*
D13*
X113157000Y-55621000D03*
X110617000Y-56891000D03*
X113157000Y-58161000D03*
X110617000Y-59431000D03*
X113157000Y-60701000D03*
X110617000Y-61971000D03*
X113157000Y-63241000D03*
D14*
X138924000Y-91882500D03*
X138924000Y-93922500D03*
X138924000Y-89842500D03*
X141464000Y-94942500D03*
X141464000Y-92902500D03*
X141464000Y-90862500D03*
D15*
X143764000Y-86392500D03*
X143764000Y-98392500D03*
D16*
X128698500Y-82740500D03*
X126698500Y-82740500D03*
X128714500Y-84836000D03*
X126714500Y-84836000D03*
X126190500Y-68453000D03*
X128190500Y-68453000D03*
X126190500Y-66421000D03*
X128190500Y-66421000D03*
X116411500Y-63182500D03*
X118411500Y-63182500D03*
D17*
X116522500Y-83169000D03*
X116522500Y-81169000D03*
D18*
X104902000Y-98591500D03*
X104902000Y-95591500D03*
D17*
X118618000Y-97075500D03*
X118618000Y-95075500D03*
D18*
X116332000Y-97575500D03*
X116332000Y-94575500D03*
D19*
X119038500Y-86804500D03*
X116038500Y-86804500D03*
D20*
X108237020Y-97536000D03*
X112234980Y-97536000D03*
D21*
X102298500Y-73850500D03*
D22*
X102298500Y-76390500D03*
X102298500Y-78930500D03*
X102298500Y-81470500D03*
D23*
X102108000Y-89979500D03*
D24*
X102108000Y-87439500D03*
D25*
X114427000Y-81282500D03*
X114427000Y-83182500D03*
D26*
X128463000Y-91186000D03*
X130363000Y-91186000D03*
X131704000Y-91186000D03*
X133604000Y-91186000D03*
D27*
X119758680Y-82834430D03*
X119763320Y-73629570D03*
D28*
X122995500Y-80814500D03*
X123645500Y-80814500D03*
X124295500Y-80814500D03*
X124945500Y-80814500D03*
X125595500Y-80814500D03*
X126245500Y-80814500D03*
X126895500Y-80814500D03*
X127545500Y-80814500D03*
X128195500Y-80814500D03*
X128845500Y-80814500D03*
X128845500Y-75014500D03*
X128195500Y-75014500D03*
X127545500Y-75014500D03*
X126895500Y-75014500D03*
X126245500Y-75014500D03*
X125595500Y-75014500D03*
X124945500Y-75014500D03*
X124295500Y-75014500D03*
X123645500Y-75014500D03*
X122995500Y-75014500D03*
D29*
X128173500Y-93091000D03*
X128173500Y-94361000D03*
X128173500Y-95631000D03*
X128173500Y-96901000D03*
X133573500Y-96901000D03*
X133573500Y-95631000D03*
X133573500Y-94361000D03*
X133573500Y-93091000D03*
D30*
X122711000Y-61408500D03*
X122711000Y-60758500D03*
X122711000Y-60108500D03*
X122711000Y-59458500D03*
X122711000Y-58808500D03*
X122711000Y-58158500D03*
X122711000Y-57508500D03*
X122711000Y-56858500D03*
X122711000Y-56208500D03*
X122711000Y-55558500D03*
X116811000Y-55558500D03*
X116811000Y-56208500D03*
X116811000Y-56858500D03*
X116811000Y-57508500D03*
X116811000Y-58158500D03*
X116811000Y-58808500D03*
X116811000Y-59458500D03*
X116811000Y-60108500D03*
X116811000Y-60758500D03*
X116811000Y-61408500D03*
D31*
X108013500Y-93726000D03*
D32*
X110299500Y-87376000D03*
D31*
X112585500Y-93726000D03*
D33*
X115996720Y-92583000D03*
X117497860Y-92583000D03*
X118999000Y-92583000D03*
D34*
X117497860Y-89631520D03*
D10*
G36*
X118498620Y-91105990D02*
X117998240Y-91855290D01*
X116997480Y-91855290D01*
X116497100Y-91105990D01*
X118498620Y-91105990D01*
X118498620Y-91105990D01*
G37*
D21*
X146812000Y-74993500D03*
D22*
X146812000Y-77533500D03*
X146812000Y-80073500D03*
X146812000Y-82613500D03*
D35*
X130683000Y-68453000D03*
D36*
X133223000Y-68453000D03*
X135763000Y-68453000D03*
X138303000Y-68453000D03*
X140843000Y-68453000D03*
X143383000Y-68453000D03*
X145923000Y-68453000D03*
X148463000Y-68453000D03*
D21*
X124396500Y-96901000D03*
D22*
X124396500Y-94361000D03*
X124396500Y-91821000D03*
M02*
