%FSLAX45Y45*%
G04 Gerber Fmt 4.5, Leading zero omitted, Abs format (unit mm)*
G04 Created by KiCad (PCBNEW 4.0.2-stable) date 3/15/2016 10:46:16 PM*
%MOMM*%
G01*
G04 APERTURE LIST*
%ADD10C,0.127000*%
%ADD11C,0.150000*%
%ADD12C,0.200000*%
%ADD13C,0.300000*%
G04 APERTURE END LIST*
D10*
D11*
X10000000Y-5000000D02*
X10000000Y-10000000D01*
X15000000Y-5000000D02*
X10000000Y-5000000D01*
X15000000Y-10000000D02*
X15000000Y-5000000D01*
X10000000Y-10000000D02*
X15000000Y-10000000D01*
D12*
X10216200Y-9371650D02*
X10256200Y-9411650D01*
X10256200Y-9371650D02*
X10216200Y-9411650D01*
X11308400Y-7847650D02*
X11348400Y-7887650D01*
X11348400Y-7847650D02*
X11308400Y-7887650D01*
X11613200Y-8463600D02*
X11653200Y-8503600D01*
X11653200Y-8463600D02*
X11613200Y-8503600D01*
X11643200Y-7528400D02*
X11683200Y-7568400D01*
X11683200Y-7528400D02*
X11643200Y-7568400D01*
X11791000Y-8209600D02*
X11831000Y-8249600D01*
X11831000Y-8209600D02*
X11791000Y-8249600D01*
X11791000Y-8412800D02*
X11831000Y-8452800D01*
X11831000Y-8412800D02*
X11791000Y-8452800D01*
X11841800Y-6990400D02*
X11881800Y-7030400D01*
X11881800Y-6990400D02*
X11841800Y-7030400D01*
X11937050Y-6463350D02*
X11977050Y-6503350D01*
X11977050Y-6463350D02*
X11937050Y-6503350D01*
X12019600Y-9371650D02*
X12059600Y-9411650D01*
X12059600Y-9371650D02*
X12019600Y-9411650D01*
X12172000Y-7794501D02*
X12212000Y-7834501D01*
X12212000Y-7794501D02*
X12172000Y-7834501D01*
X12229150Y-8774750D02*
X12269150Y-8814750D01*
X12269150Y-8774750D02*
X12229150Y-8814750D01*
X12248200Y-6463350D02*
X12288200Y-6503350D01*
X12288200Y-6463350D02*
X12248200Y-6503350D01*
X12273600Y-7193600D02*
X12313600Y-7233600D01*
X12313600Y-7193600D02*
X12273600Y-7233600D01*
X12344550Y-7579850D02*
X12384550Y-7619850D01*
X12384550Y-7579850D02*
X12344550Y-7619850D01*
X12419650Y-8298500D02*
X12459650Y-8338500D01*
X12459650Y-8298500D02*
X12419650Y-8338500D01*
X12578400Y-7193600D02*
X12618400Y-7233600D01*
X12618400Y-7193600D02*
X12578400Y-7233600D01*
X12610150Y-8622350D02*
X12650150Y-8662350D01*
X12650150Y-8622350D02*
X12610150Y-8662350D01*
X12711750Y-8774750D02*
X12751750Y-8814750D01*
X12751750Y-8774750D02*
X12711750Y-8814750D01*
X12807000Y-7193600D02*
X12847000Y-7233600D01*
X12847000Y-7193600D02*
X12807000Y-7233600D01*
X13065600Y-7452200D02*
X13105600Y-7492200D01*
X13105600Y-7452200D02*
X13065600Y-7492200D01*
X13067350Y-7847650D02*
X13107350Y-7887650D01*
X13107350Y-7847650D02*
X13067350Y-7887650D01*
X13308650Y-7707950D02*
X13348650Y-7747950D01*
X13348650Y-7707950D02*
X13308650Y-7747950D01*
X13486450Y-9111300D02*
X13526450Y-9151300D01*
X13526450Y-9111300D02*
X13486450Y-9151300D01*
X13549950Y-7346000D02*
X13589950Y-7386000D01*
X13589950Y-7346000D02*
X13549950Y-7386000D01*
X13802950Y-7408500D02*
X13842950Y-7448500D01*
X13842950Y-7408500D02*
X13802950Y-7448500D01*
X11106700Y-5435100D02*
G75*
G03X11106700Y-5435100I-45000J0D01*
G01*
X11106700Y-5689100D02*
G75*
G03X11106700Y-5689100I-45000J0D01*
G01*
X11106700Y-5943100D02*
G75*
G03X11106700Y-5943100I-45000J0D01*
G01*
X11106700Y-6197100D02*
G75*
G03X11106700Y-6197100I-45000J0D01*
G01*
X11360700Y-5562100D02*
G75*
G03X11360700Y-5562100I-45000J0D01*
G01*
X11360700Y-5816100D02*
G75*
G03X11360700Y-5816100I-45000J0D01*
G01*
X11360700Y-6070100D02*
G75*
G03X11360700Y-6070100I-45000J0D01*
G01*
X11360700Y-6324100D02*
G75*
G03X11360700Y-6324100I-45000J0D01*
G01*
X13937400Y-8984250D02*
G75*
G03X13937400Y-8984250I-45000J0D01*
G01*
X13937400Y-9188250D02*
G75*
G03X13937400Y-9188250I-45000J0D01*
G01*
X13937400Y-9392250D02*
G75*
G03X13937400Y-9392250I-45000J0D01*
G01*
X14191400Y-9086250D02*
G75*
G03X14191400Y-9086250I-45000J0D01*
G01*
X14191400Y-9290250D02*
G75*
G03X14191400Y-9290250I-45000J0D01*
G01*
X14191400Y-9494250D02*
G75*
G03X14191400Y-9494250I-45000J0D01*
G01*
X10210800Y-8693150D02*
X10210800Y-8794750D01*
X10160000Y-8743950D02*
X10261600Y-8743950D01*
X10210800Y-8947150D02*
X10210800Y-9048750D01*
X10160000Y-8997950D02*
X10261600Y-8997950D01*
X10229850Y-7334250D02*
X10229850Y-7435850D01*
X10179050Y-7385050D02*
X10280650Y-7385050D01*
X10229850Y-7588250D02*
X10229850Y-7689850D01*
X10179050Y-7639050D02*
X10280650Y-7639050D01*
X10229850Y-7842250D02*
X10229850Y-7943850D01*
X10179050Y-7893050D02*
X10280650Y-7893050D01*
X10229850Y-8096250D02*
X10229850Y-8197850D01*
X10179050Y-8147050D02*
X10280650Y-8147050D01*
X12439650Y-9131300D02*
X12439650Y-9232900D01*
X12388850Y-9182100D02*
X12490450Y-9182100D01*
X12439650Y-9385300D02*
X12439650Y-9486900D01*
X12388850Y-9436100D02*
X12490450Y-9436100D01*
X12439650Y-9639300D02*
X12439650Y-9740900D01*
X12388850Y-9690100D02*
X12490450Y-9690100D01*
X13068300Y-6794500D02*
X13068300Y-6896100D01*
X13017500Y-6845300D02*
X13119100Y-6845300D01*
X13322300Y-6794500D02*
X13322300Y-6896100D01*
X13271500Y-6845300D02*
X13373100Y-6845300D01*
X13576300Y-6794500D02*
X13576300Y-6896100D01*
X13525500Y-6845300D02*
X13627100Y-6845300D01*
X13830300Y-6794500D02*
X13830300Y-6896100D01*
X13779500Y-6845300D02*
X13881100Y-6845300D01*
X14084300Y-6794500D02*
X14084300Y-6896100D01*
X14033500Y-6845300D02*
X14135100Y-6845300D01*
X14338300Y-6794500D02*
X14338300Y-6896100D01*
X14287500Y-6845300D02*
X14389100Y-6845300D01*
X14592300Y-6794500D02*
X14592300Y-6896100D01*
X14541500Y-6845300D02*
X14643100Y-6845300D01*
X14681200Y-7448550D02*
X14681200Y-7550150D01*
X14630400Y-7499350D02*
X14732000Y-7499350D01*
X14681200Y-7702550D02*
X14681200Y-7804150D01*
X14630400Y-7753350D02*
X14732000Y-7753350D01*
X14681200Y-7956550D02*
X14681200Y-8058150D01*
X14630400Y-8007350D02*
X14732000Y-8007350D01*
X14681200Y-8210550D02*
X14681200Y-8312150D01*
X14630400Y-8261350D02*
X14732000Y-8261350D01*
X14846300Y-6794500D02*
X14846300Y-6896100D01*
X14795500Y-6845300D02*
X14897100Y-6845300D01*
D13*
X10263929Y-10473214D02*
X10263929Y-10173214D01*
X10335357Y-10173214D01*
X10378214Y-10187500D01*
X10406786Y-10216072D01*
X10421071Y-10244643D01*
X10435357Y-10301786D01*
X10435357Y-10344643D01*
X10421071Y-10401786D01*
X10406786Y-10430357D01*
X10378214Y-10458929D01*
X10335357Y-10473214D01*
X10263929Y-10473214D01*
X10563929Y-10473214D02*
X10563929Y-10273214D01*
X10563929Y-10330357D02*
X10578214Y-10301786D01*
X10592500Y-10287500D01*
X10621071Y-10273214D01*
X10649643Y-10273214D01*
X10749643Y-10473214D02*
X10749643Y-10273214D01*
X10749643Y-10173214D02*
X10735357Y-10187500D01*
X10749643Y-10201786D01*
X10763929Y-10187500D01*
X10749643Y-10173214D01*
X10749643Y-10201786D01*
X10935357Y-10473214D02*
X10906786Y-10458929D01*
X10892500Y-10430357D01*
X10892500Y-10173214D01*
X11092500Y-10473214D02*
X11063929Y-10458929D01*
X11049643Y-10430357D01*
X11049643Y-10173214D01*
X11435357Y-10473214D02*
X11435357Y-10173214D01*
X11535357Y-10387500D01*
X11635357Y-10173214D01*
X11635357Y-10473214D01*
X11906786Y-10473214D02*
X11906786Y-10316072D01*
X11892500Y-10287500D01*
X11863928Y-10273214D01*
X11806786Y-10273214D01*
X11778214Y-10287500D01*
X11906786Y-10458929D02*
X11878214Y-10473214D01*
X11806786Y-10473214D01*
X11778214Y-10458929D01*
X11763928Y-10430357D01*
X11763928Y-10401786D01*
X11778214Y-10373214D01*
X11806786Y-10358929D01*
X11878214Y-10358929D01*
X11906786Y-10344643D01*
X12049643Y-10273214D02*
X12049643Y-10573214D01*
X12049643Y-10287500D02*
X12078214Y-10273214D01*
X12135357Y-10273214D01*
X12163928Y-10287500D01*
X12178214Y-10301786D01*
X12192500Y-10330357D01*
X12192500Y-10416072D01*
X12178214Y-10444643D01*
X12163928Y-10458929D01*
X12135357Y-10473214D01*
X12078214Y-10473214D01*
X12049643Y-10458929D01*
X12321071Y-10444643D02*
X12335357Y-10458929D01*
X12321071Y-10473214D01*
X12306786Y-10458929D01*
X12321071Y-10444643D01*
X12321071Y-10473214D01*
X12321071Y-10287500D02*
X12335357Y-10301786D01*
X12321071Y-10316072D01*
X12306786Y-10301786D01*
X12321071Y-10287500D01*
X12321071Y-10316072D01*
X9952500Y-10947500D02*
X9992500Y-10987500D01*
X9992500Y-10947500D02*
X9952500Y-10987500D01*
X10321071Y-10803214D02*
X10349643Y-10803214D01*
X10378214Y-10817500D01*
X10392500Y-10831786D01*
X10406786Y-10860357D01*
X10421071Y-10917500D01*
X10421071Y-10988929D01*
X10406786Y-11046072D01*
X10392500Y-11074643D01*
X10378214Y-11088929D01*
X10349643Y-11103214D01*
X10321071Y-11103214D01*
X10292500Y-11088929D01*
X10278214Y-11074643D01*
X10263929Y-11046072D01*
X10249643Y-10988929D01*
X10249643Y-10917500D01*
X10263929Y-10860357D01*
X10278214Y-10831786D01*
X10292500Y-10817500D01*
X10321071Y-10803214D01*
X10549643Y-11074643D02*
X10563929Y-11088929D01*
X10549643Y-11103214D01*
X10535357Y-11088929D01*
X10549643Y-11074643D01*
X10549643Y-11103214D01*
X10821071Y-10903214D02*
X10821071Y-11103214D01*
X10749643Y-10788929D02*
X10678214Y-11003214D01*
X10863928Y-11003214D01*
X11035357Y-10803214D02*
X11063929Y-10803214D01*
X11092500Y-10817500D01*
X11106786Y-10831786D01*
X11121071Y-10860357D01*
X11135357Y-10917500D01*
X11135357Y-10988929D01*
X11121071Y-11046072D01*
X11106786Y-11074643D01*
X11092500Y-11088929D01*
X11063929Y-11103214D01*
X11035357Y-11103214D01*
X11006786Y-11088929D01*
X10992500Y-11074643D01*
X10978214Y-11046072D01*
X10963929Y-10988929D01*
X10963929Y-10917500D01*
X10978214Y-10860357D01*
X10992500Y-10831786D01*
X11006786Y-10817500D01*
X11035357Y-10803214D01*
X11263928Y-11103214D02*
X11263928Y-10903214D01*
X11263928Y-10931786D02*
X11278214Y-10917500D01*
X11306786Y-10903214D01*
X11349643Y-10903214D01*
X11378214Y-10917500D01*
X11392500Y-10946072D01*
X11392500Y-11103214D01*
X11392500Y-10946072D02*
X11406786Y-10917500D01*
X11435357Y-10903214D01*
X11478214Y-10903214D01*
X11506786Y-10917500D01*
X11521071Y-10946072D01*
X11521071Y-11103214D01*
X11663928Y-11103214D02*
X11663928Y-10903214D01*
X11663928Y-10931786D02*
X11678214Y-10917500D01*
X11706786Y-10903214D01*
X11749643Y-10903214D01*
X11778214Y-10917500D01*
X11792500Y-10946072D01*
X11792500Y-11103214D01*
X11792500Y-10946072D02*
X11806786Y-10917500D01*
X11835357Y-10903214D01*
X11878214Y-10903214D01*
X11906786Y-10917500D01*
X11921071Y-10946072D01*
X11921071Y-11103214D01*
X12506786Y-10788929D02*
X12249643Y-11174643D01*
X12892500Y-10803214D02*
X12921071Y-10803214D01*
X12949643Y-10817500D01*
X12963928Y-10831786D01*
X12978214Y-10860357D01*
X12992500Y-10917500D01*
X12992500Y-10988929D01*
X12978214Y-11046072D01*
X12963928Y-11074643D01*
X12949643Y-11088929D01*
X12921071Y-11103214D01*
X12892500Y-11103214D01*
X12863928Y-11088929D01*
X12849643Y-11074643D01*
X12835357Y-11046072D01*
X12821071Y-10988929D01*
X12821071Y-10917500D01*
X12835357Y-10860357D01*
X12849643Y-10831786D01*
X12863928Y-10817500D01*
X12892500Y-10803214D01*
X13121071Y-11074643D02*
X13135357Y-11088929D01*
X13121071Y-11103214D01*
X13106786Y-11088929D01*
X13121071Y-11074643D01*
X13121071Y-11103214D01*
X13321071Y-10803214D02*
X13349643Y-10803214D01*
X13378214Y-10817500D01*
X13392500Y-10831786D01*
X13406785Y-10860357D01*
X13421071Y-10917500D01*
X13421071Y-10988929D01*
X13406785Y-11046072D01*
X13392500Y-11074643D01*
X13378214Y-11088929D01*
X13349643Y-11103214D01*
X13321071Y-11103214D01*
X13292500Y-11088929D01*
X13278214Y-11074643D01*
X13263928Y-11046072D01*
X13249643Y-10988929D01*
X13249643Y-10917500D01*
X13263928Y-10860357D01*
X13278214Y-10831786D01*
X13292500Y-10817500D01*
X13321071Y-10803214D01*
X13706785Y-11103214D02*
X13535357Y-11103214D01*
X13621071Y-11103214D02*
X13621071Y-10803214D01*
X13592500Y-10846072D01*
X13563928Y-10874643D01*
X13535357Y-10888929D01*
X13963928Y-10803214D02*
X13906785Y-10803214D01*
X13878214Y-10817500D01*
X13863928Y-10831786D01*
X13835357Y-10874643D01*
X13821071Y-10931786D01*
X13821071Y-11046072D01*
X13835357Y-11074643D01*
X13849643Y-11088929D01*
X13878214Y-11103214D01*
X13935357Y-11103214D01*
X13963928Y-11088929D01*
X13978214Y-11074643D01*
X13992500Y-11046072D01*
X13992500Y-10974643D01*
X13978214Y-10946072D01*
X13963928Y-10931786D01*
X13935357Y-10917500D01*
X13878214Y-10917500D01*
X13849643Y-10931786D01*
X13835357Y-10946072D01*
X13821071Y-10974643D01*
X14106786Y-10803214D02*
X14106786Y-10860357D01*
X14221071Y-10803214D02*
X14221071Y-10860357D01*
X14663928Y-11217500D02*
X14649643Y-11203214D01*
X14621071Y-11160357D01*
X14606785Y-11131786D01*
X14592500Y-11088929D01*
X14578214Y-11017500D01*
X14578214Y-10960357D01*
X14592500Y-10888929D01*
X14606785Y-10846072D01*
X14621071Y-10817500D01*
X14649643Y-10774643D01*
X14663928Y-10760357D01*
X14763928Y-10831786D02*
X14778214Y-10817500D01*
X14806785Y-10803214D01*
X14878214Y-10803214D01*
X14906785Y-10817500D01*
X14921071Y-10831786D01*
X14935357Y-10860357D01*
X14935357Y-10888929D01*
X14921071Y-10931786D01*
X14749643Y-11103214D01*
X14935357Y-11103214D01*
X15206785Y-10803214D02*
X15063928Y-10803214D01*
X15049643Y-10946072D01*
X15063928Y-10931786D01*
X15092500Y-10917500D01*
X15163928Y-10917500D01*
X15192500Y-10931786D01*
X15206785Y-10946072D01*
X15221071Y-10974643D01*
X15221071Y-11046072D01*
X15206785Y-11074643D01*
X15192500Y-11088929D01*
X15163928Y-11103214D01*
X15092500Y-11103214D01*
X15063928Y-11088929D01*
X15049643Y-11074643D01*
X15578214Y-11103214D02*
X15578214Y-10803214D01*
X15706785Y-11103214D02*
X15706785Y-10946072D01*
X15692500Y-10917500D01*
X15663928Y-10903214D01*
X15621071Y-10903214D01*
X15592500Y-10917500D01*
X15578214Y-10931786D01*
X15892500Y-11103214D02*
X15863928Y-11088929D01*
X15849643Y-11074643D01*
X15835357Y-11046072D01*
X15835357Y-10960357D01*
X15849643Y-10931786D01*
X15863928Y-10917500D01*
X15892500Y-10903214D01*
X15935357Y-10903214D01*
X15963928Y-10917500D01*
X15978214Y-10931786D01*
X15992500Y-10960357D01*
X15992500Y-11046072D01*
X15978214Y-11074643D01*
X15963928Y-11088929D01*
X15935357Y-11103214D01*
X15892500Y-11103214D01*
X16163928Y-11103214D02*
X16135357Y-11088929D01*
X16121071Y-11060357D01*
X16121071Y-10803214D01*
X16392500Y-11088929D02*
X16363928Y-11103214D01*
X16306786Y-11103214D01*
X16278214Y-11088929D01*
X16263928Y-11060357D01*
X16263928Y-10946072D01*
X16278214Y-10917500D01*
X16306786Y-10903214D01*
X16363928Y-10903214D01*
X16392500Y-10917500D01*
X16406786Y-10946072D01*
X16406786Y-10974643D01*
X16263928Y-11003214D01*
X16521071Y-11088929D02*
X16549643Y-11103214D01*
X16606786Y-11103214D01*
X16635357Y-11088929D01*
X16649643Y-11060357D01*
X16649643Y-11046072D01*
X16635357Y-11017500D01*
X16606786Y-11003214D01*
X16563928Y-11003214D01*
X16535357Y-10988929D01*
X16521071Y-10960357D01*
X16521071Y-10946072D01*
X16535357Y-10917500D01*
X16563928Y-10903214D01*
X16606786Y-10903214D01*
X16635357Y-10917500D01*
X16749643Y-11217500D02*
X16763928Y-11203214D01*
X16792500Y-11160357D01*
X16806786Y-11131786D01*
X16821071Y-11088929D01*
X16835357Y-11017500D01*
X16835357Y-10960357D01*
X16821071Y-10888929D01*
X16806786Y-10846072D01*
X16792500Y-10817500D01*
X16763928Y-10774643D01*
X16749643Y-10760357D01*
X9992500Y-11363500D02*
G75*
G03X9992500Y-11363500I-45000J0D01*
G01*
X10321071Y-11199214D02*
X10349643Y-11199214D01*
X10378214Y-11213500D01*
X10392500Y-11227786D01*
X10406786Y-11256357D01*
X10421071Y-11313500D01*
X10421071Y-11384929D01*
X10406786Y-11442071D01*
X10392500Y-11470643D01*
X10378214Y-11484929D01*
X10349643Y-11499214D01*
X10321071Y-11499214D01*
X10292500Y-11484929D01*
X10278214Y-11470643D01*
X10263929Y-11442071D01*
X10249643Y-11384929D01*
X10249643Y-11313500D01*
X10263929Y-11256357D01*
X10278214Y-11227786D01*
X10292500Y-11213500D01*
X10321071Y-11199214D01*
X10549643Y-11470643D02*
X10563929Y-11484929D01*
X10549643Y-11499214D01*
X10535357Y-11484929D01*
X10549643Y-11470643D01*
X10549643Y-11499214D01*
X10706786Y-11499214D02*
X10763928Y-11499214D01*
X10792500Y-11484929D01*
X10806786Y-11470643D01*
X10835357Y-11427786D01*
X10849643Y-11370643D01*
X10849643Y-11256357D01*
X10835357Y-11227786D01*
X10821071Y-11213500D01*
X10792500Y-11199214D01*
X10735357Y-11199214D01*
X10706786Y-11213500D01*
X10692500Y-11227786D01*
X10678214Y-11256357D01*
X10678214Y-11327786D01*
X10692500Y-11356357D01*
X10706786Y-11370643D01*
X10735357Y-11384929D01*
X10792500Y-11384929D01*
X10821071Y-11370643D01*
X10835357Y-11356357D01*
X10849643Y-11327786D01*
X11035357Y-11199214D02*
X11063929Y-11199214D01*
X11092500Y-11213500D01*
X11106786Y-11227786D01*
X11121071Y-11256357D01*
X11135357Y-11313500D01*
X11135357Y-11384929D01*
X11121071Y-11442071D01*
X11106786Y-11470643D01*
X11092500Y-11484929D01*
X11063929Y-11499214D01*
X11035357Y-11499214D01*
X11006786Y-11484929D01*
X10992500Y-11470643D01*
X10978214Y-11442071D01*
X10963929Y-11384929D01*
X10963929Y-11313500D01*
X10978214Y-11256357D01*
X10992500Y-11227786D01*
X11006786Y-11213500D01*
X11035357Y-11199214D01*
X11263928Y-11499214D02*
X11263928Y-11299214D01*
X11263928Y-11327786D02*
X11278214Y-11313500D01*
X11306786Y-11299214D01*
X11349643Y-11299214D01*
X11378214Y-11313500D01*
X11392500Y-11342071D01*
X11392500Y-11499214D01*
X11392500Y-11342071D02*
X11406786Y-11313500D01*
X11435357Y-11299214D01*
X11478214Y-11299214D01*
X11506786Y-11313500D01*
X11521071Y-11342071D01*
X11521071Y-11499214D01*
X11663928Y-11499214D02*
X11663928Y-11299214D01*
X11663928Y-11327786D02*
X11678214Y-11313500D01*
X11706786Y-11299214D01*
X11749643Y-11299214D01*
X11778214Y-11313500D01*
X11792500Y-11342071D01*
X11792500Y-11499214D01*
X11792500Y-11342071D02*
X11806786Y-11313500D01*
X11835357Y-11299214D01*
X11878214Y-11299214D01*
X11906786Y-11313500D01*
X11921071Y-11342071D01*
X11921071Y-11499214D01*
X12506786Y-11184929D02*
X12249643Y-11570643D01*
X12892500Y-11199214D02*
X12921071Y-11199214D01*
X12949643Y-11213500D01*
X12963928Y-11227786D01*
X12978214Y-11256357D01*
X12992500Y-11313500D01*
X12992500Y-11384929D01*
X12978214Y-11442071D01*
X12963928Y-11470643D01*
X12949643Y-11484929D01*
X12921071Y-11499214D01*
X12892500Y-11499214D01*
X12863928Y-11484929D01*
X12849643Y-11470643D01*
X12835357Y-11442071D01*
X12821071Y-11384929D01*
X12821071Y-11313500D01*
X12835357Y-11256357D01*
X12849643Y-11227786D01*
X12863928Y-11213500D01*
X12892500Y-11199214D01*
X13121071Y-11470643D02*
X13135357Y-11484929D01*
X13121071Y-11499214D01*
X13106786Y-11484929D01*
X13121071Y-11470643D01*
X13121071Y-11499214D01*
X13321071Y-11199214D02*
X13349643Y-11199214D01*
X13378214Y-11213500D01*
X13392500Y-11227786D01*
X13406785Y-11256357D01*
X13421071Y-11313500D01*
X13421071Y-11384929D01*
X13406785Y-11442071D01*
X13392500Y-11470643D01*
X13378214Y-11484929D01*
X13349643Y-11499214D01*
X13321071Y-11499214D01*
X13292500Y-11484929D01*
X13278214Y-11470643D01*
X13263928Y-11442071D01*
X13249643Y-11384929D01*
X13249643Y-11313500D01*
X13263928Y-11256357D01*
X13278214Y-11227786D01*
X13292500Y-11213500D01*
X13321071Y-11199214D01*
X13521071Y-11199214D02*
X13706785Y-11199214D01*
X13606785Y-11313500D01*
X13649643Y-11313500D01*
X13678214Y-11327786D01*
X13692500Y-11342071D01*
X13706785Y-11370643D01*
X13706785Y-11442071D01*
X13692500Y-11470643D01*
X13678214Y-11484929D01*
X13649643Y-11499214D01*
X13563928Y-11499214D01*
X13535357Y-11484929D01*
X13521071Y-11470643D01*
X13978214Y-11199214D02*
X13835357Y-11199214D01*
X13821071Y-11342071D01*
X13835357Y-11327786D01*
X13863928Y-11313500D01*
X13935357Y-11313500D01*
X13963928Y-11327786D01*
X13978214Y-11342071D01*
X13992500Y-11370643D01*
X13992500Y-11442071D01*
X13978214Y-11470643D01*
X13963928Y-11484929D01*
X13935357Y-11499214D01*
X13863928Y-11499214D01*
X13835357Y-11484929D01*
X13821071Y-11470643D01*
X14106786Y-11199214D02*
X14106786Y-11256357D01*
X14221071Y-11199214D02*
X14221071Y-11256357D01*
X14663928Y-11613500D02*
X14649643Y-11599214D01*
X14621071Y-11556357D01*
X14606785Y-11527786D01*
X14592500Y-11484929D01*
X14578214Y-11413500D01*
X14578214Y-11356357D01*
X14592500Y-11284929D01*
X14606785Y-11242071D01*
X14621071Y-11213500D01*
X14649643Y-11170643D01*
X14663928Y-11156357D01*
X14935357Y-11499214D02*
X14763928Y-11499214D01*
X14849643Y-11499214D02*
X14849643Y-11199214D01*
X14821071Y-11242071D01*
X14792500Y-11270643D01*
X14763928Y-11284929D01*
X15192500Y-11299214D02*
X15192500Y-11499214D01*
X15121071Y-11184929D02*
X15049643Y-11399214D01*
X15235357Y-11399214D01*
X15578214Y-11499214D02*
X15578214Y-11199214D01*
X15706785Y-11499214D02*
X15706785Y-11342071D01*
X15692500Y-11313500D01*
X15663928Y-11299214D01*
X15621071Y-11299214D01*
X15592500Y-11313500D01*
X15578214Y-11327786D01*
X15892500Y-11499214D02*
X15863928Y-11484929D01*
X15849643Y-11470643D01*
X15835357Y-11442071D01*
X15835357Y-11356357D01*
X15849643Y-11327786D01*
X15863928Y-11313500D01*
X15892500Y-11299214D01*
X15935357Y-11299214D01*
X15963928Y-11313500D01*
X15978214Y-11327786D01*
X15992500Y-11356357D01*
X15992500Y-11442071D01*
X15978214Y-11470643D01*
X15963928Y-11484929D01*
X15935357Y-11499214D01*
X15892500Y-11499214D01*
X16163928Y-11499214D02*
X16135357Y-11484929D01*
X16121071Y-11456357D01*
X16121071Y-11199214D01*
X16392500Y-11484929D02*
X16363928Y-11499214D01*
X16306786Y-11499214D01*
X16278214Y-11484929D01*
X16263928Y-11456357D01*
X16263928Y-11342071D01*
X16278214Y-11313500D01*
X16306786Y-11299214D01*
X16363928Y-11299214D01*
X16392500Y-11313500D01*
X16406786Y-11342071D01*
X16406786Y-11370643D01*
X16263928Y-11399214D01*
X16521071Y-11484929D02*
X16549643Y-11499214D01*
X16606786Y-11499214D01*
X16635357Y-11484929D01*
X16649643Y-11456357D01*
X16649643Y-11442071D01*
X16635357Y-11413500D01*
X16606786Y-11399214D01*
X16563928Y-11399214D01*
X16535357Y-11384929D01*
X16521071Y-11356357D01*
X16521071Y-11342071D01*
X16535357Y-11313500D01*
X16563928Y-11299214D01*
X16606786Y-11299214D01*
X16635357Y-11313500D01*
X16749643Y-11613500D02*
X16763928Y-11599214D01*
X16792500Y-11556357D01*
X16806786Y-11527786D01*
X16821071Y-11484929D01*
X16835357Y-11413500D01*
X16835357Y-11356357D01*
X16821071Y-11284929D01*
X16806786Y-11242071D01*
X16792500Y-11213500D01*
X16763928Y-11170643D01*
X16749643Y-11156357D01*
X9941700Y-11708700D02*
X9941700Y-11810300D01*
X9890900Y-11759500D02*
X9992500Y-11759500D01*
X10421071Y-11895214D02*
X10249643Y-11895214D01*
X10335357Y-11895214D02*
X10335357Y-11595214D01*
X10306786Y-11638071D01*
X10278214Y-11666643D01*
X10249643Y-11680929D01*
X10549643Y-11866643D02*
X10563929Y-11880929D01*
X10549643Y-11895214D01*
X10535357Y-11880929D01*
X10549643Y-11866643D01*
X10549643Y-11895214D01*
X10749643Y-11595214D02*
X10778214Y-11595214D01*
X10806786Y-11609500D01*
X10821071Y-11623786D01*
X10835357Y-11652357D01*
X10849643Y-11709500D01*
X10849643Y-11780929D01*
X10835357Y-11838071D01*
X10821071Y-11866643D01*
X10806786Y-11880929D01*
X10778214Y-11895214D01*
X10749643Y-11895214D01*
X10721071Y-11880929D01*
X10706786Y-11866643D01*
X10692500Y-11838071D01*
X10678214Y-11780929D01*
X10678214Y-11709500D01*
X10692500Y-11652357D01*
X10706786Y-11623786D01*
X10721071Y-11609500D01*
X10749643Y-11595214D01*
X10963929Y-11623786D02*
X10978214Y-11609500D01*
X11006786Y-11595214D01*
X11078214Y-11595214D01*
X11106786Y-11609500D01*
X11121071Y-11623786D01*
X11135357Y-11652357D01*
X11135357Y-11680929D01*
X11121071Y-11723786D01*
X10949643Y-11895214D01*
X11135357Y-11895214D01*
X11263928Y-11895214D02*
X11263928Y-11695214D01*
X11263928Y-11723786D02*
X11278214Y-11709500D01*
X11306786Y-11695214D01*
X11349643Y-11695214D01*
X11378214Y-11709500D01*
X11392500Y-11738071D01*
X11392500Y-11895214D01*
X11392500Y-11738071D02*
X11406786Y-11709500D01*
X11435357Y-11695214D01*
X11478214Y-11695214D01*
X11506786Y-11709500D01*
X11521071Y-11738071D01*
X11521071Y-11895214D01*
X11663928Y-11895214D02*
X11663928Y-11695214D01*
X11663928Y-11723786D02*
X11678214Y-11709500D01*
X11706786Y-11695214D01*
X11749643Y-11695214D01*
X11778214Y-11709500D01*
X11792500Y-11738071D01*
X11792500Y-11895214D01*
X11792500Y-11738071D02*
X11806786Y-11709500D01*
X11835357Y-11695214D01*
X11878214Y-11695214D01*
X11906786Y-11709500D01*
X11921071Y-11738071D01*
X11921071Y-11895214D01*
X12506786Y-11580929D02*
X12249643Y-11966643D01*
X12892500Y-11595214D02*
X12921071Y-11595214D01*
X12949643Y-11609500D01*
X12963928Y-11623786D01*
X12978214Y-11652357D01*
X12992500Y-11709500D01*
X12992500Y-11780929D01*
X12978214Y-11838071D01*
X12963928Y-11866643D01*
X12949643Y-11880929D01*
X12921071Y-11895214D01*
X12892500Y-11895214D01*
X12863928Y-11880929D01*
X12849643Y-11866643D01*
X12835357Y-11838071D01*
X12821071Y-11780929D01*
X12821071Y-11709500D01*
X12835357Y-11652357D01*
X12849643Y-11623786D01*
X12863928Y-11609500D01*
X12892500Y-11595214D01*
X13121071Y-11866643D02*
X13135357Y-11880929D01*
X13121071Y-11895214D01*
X13106786Y-11880929D01*
X13121071Y-11866643D01*
X13121071Y-11895214D01*
X13321071Y-11595214D02*
X13349643Y-11595214D01*
X13378214Y-11609500D01*
X13392500Y-11623786D01*
X13406785Y-11652357D01*
X13421071Y-11709500D01*
X13421071Y-11780929D01*
X13406785Y-11838071D01*
X13392500Y-11866643D01*
X13378214Y-11880929D01*
X13349643Y-11895214D01*
X13321071Y-11895214D01*
X13292500Y-11880929D01*
X13278214Y-11866643D01*
X13263928Y-11838071D01*
X13249643Y-11780929D01*
X13249643Y-11709500D01*
X13263928Y-11652357D01*
X13278214Y-11623786D01*
X13292500Y-11609500D01*
X13321071Y-11595214D01*
X13678214Y-11695214D02*
X13678214Y-11895214D01*
X13606785Y-11580929D02*
X13535357Y-11795214D01*
X13721071Y-11795214D01*
X13892500Y-11595214D02*
X13921071Y-11595214D01*
X13949643Y-11609500D01*
X13963928Y-11623786D01*
X13978214Y-11652357D01*
X13992500Y-11709500D01*
X13992500Y-11780929D01*
X13978214Y-11838071D01*
X13963928Y-11866643D01*
X13949643Y-11880929D01*
X13921071Y-11895214D01*
X13892500Y-11895214D01*
X13863928Y-11880929D01*
X13849643Y-11866643D01*
X13835357Y-11838071D01*
X13821071Y-11780929D01*
X13821071Y-11709500D01*
X13835357Y-11652357D01*
X13849643Y-11623786D01*
X13863928Y-11609500D01*
X13892500Y-11595214D01*
X14106786Y-11595214D02*
X14106786Y-11652357D01*
X14221071Y-11595214D02*
X14221071Y-11652357D01*
X14663928Y-12009500D02*
X14649643Y-11995214D01*
X14621071Y-11952357D01*
X14606785Y-11923786D01*
X14592500Y-11880929D01*
X14578214Y-11809500D01*
X14578214Y-11752357D01*
X14592500Y-11680929D01*
X14606785Y-11638071D01*
X14621071Y-11609500D01*
X14649643Y-11566643D01*
X14663928Y-11552357D01*
X14763928Y-11623786D02*
X14778214Y-11609500D01*
X14806785Y-11595214D01*
X14878214Y-11595214D01*
X14906785Y-11609500D01*
X14921071Y-11623786D01*
X14935357Y-11652357D01*
X14935357Y-11680929D01*
X14921071Y-11723786D01*
X14749643Y-11895214D01*
X14935357Y-11895214D01*
X15221071Y-11895214D02*
X15049643Y-11895214D01*
X15135357Y-11895214D02*
X15135357Y-11595214D01*
X15106785Y-11638071D01*
X15078214Y-11666643D01*
X15049643Y-11680929D01*
X15578214Y-11895214D02*
X15578214Y-11595214D01*
X15706785Y-11895214D02*
X15706785Y-11738071D01*
X15692500Y-11709500D01*
X15663928Y-11695214D01*
X15621071Y-11695214D01*
X15592500Y-11709500D01*
X15578214Y-11723786D01*
X15892500Y-11895214D02*
X15863928Y-11880929D01*
X15849643Y-11866643D01*
X15835357Y-11838071D01*
X15835357Y-11752357D01*
X15849643Y-11723786D01*
X15863928Y-11709500D01*
X15892500Y-11695214D01*
X15935357Y-11695214D01*
X15963928Y-11709500D01*
X15978214Y-11723786D01*
X15992500Y-11752357D01*
X15992500Y-11838071D01*
X15978214Y-11866643D01*
X15963928Y-11880929D01*
X15935357Y-11895214D01*
X15892500Y-11895214D01*
X16163928Y-11895214D02*
X16135357Y-11880929D01*
X16121071Y-11852357D01*
X16121071Y-11595214D01*
X16392500Y-11880929D02*
X16363928Y-11895214D01*
X16306786Y-11895214D01*
X16278214Y-11880929D01*
X16263928Y-11852357D01*
X16263928Y-11738071D01*
X16278214Y-11709500D01*
X16306786Y-11695214D01*
X16363928Y-11695214D01*
X16392500Y-11709500D01*
X16406786Y-11738071D01*
X16406786Y-11766643D01*
X16263928Y-11795214D01*
X16521071Y-11880929D02*
X16549643Y-11895214D01*
X16606786Y-11895214D01*
X16635357Y-11880929D01*
X16649643Y-11852357D01*
X16649643Y-11838071D01*
X16635357Y-11809500D01*
X16606786Y-11795214D01*
X16563928Y-11795214D01*
X16535357Y-11780929D01*
X16521071Y-11752357D01*
X16521071Y-11738071D01*
X16535357Y-11709500D01*
X16563928Y-11695214D01*
X16606786Y-11695214D01*
X16635357Y-11709500D01*
X16749643Y-12009500D02*
X16763928Y-11995214D01*
X16792500Y-11952357D01*
X16806786Y-11923786D01*
X16821071Y-11880929D01*
X16835357Y-11809500D01*
X16835357Y-11752357D01*
X16821071Y-11680929D01*
X16806786Y-11638071D01*
X16792500Y-11609500D01*
X16763928Y-11566643D01*
X16749643Y-11552357D01*
M02*
